{"glyphs":{"0":{"ha":555,"x_min":60,"x_max":494,"o":"m 277 1006 q 441 880 389 1006 q 494 500 494 755 q 439 116 494 245 q 274 -14 385 -14 q 111 106 163 -14 q 60 497 60 226 q 277 1006 60 1006 m 277 942 q 164 833 200 942 q 129 497 129 724 q 165 161 129 271 q 277 50 201 50 q 425 496 425 50 q 277 942 425 942 z "},"1":{"ha":555,"x_min":102,"x_max":347,"o":"m 347 0 l 282 0 l 282 729 q 288 921 282 811 q 221 850 274 903 l 136 772 l 102 815 l 293 991 l 347 991 l 347 0 z "},"2":{"ha":555,"x_min":50,"x_max":494,"o":"m 256 1006 q 415 942 358 1006 q 472 770 472 878 q 408 500 472 632 q 309 336 378 436 l 126 66 l 126 61 l 494 61 l 494 0 l 50 0 l 50 53 l 250 355 q 373 579 341 493 q 406 770 406 666 q 364 897 406 850 q 252 945 323 945 q 171 931 206 945 q 100 889 136 918 l 64 940 q 155 991 112 976 q 256 1006 197 1006 z "},"3":{"ha":555,"x_min":52,"x_max":488,"o":"m 258 1006 q 414 941 355 1006 q 472 777 472 877 q 311 519 472 576 l 311 514 q 441 431 395 496 q 488 268 488 366 q 422 62 488 138 q 244 -14 357 -14 q 57 22 131 -14 l 57 96 q 244 46 142 46 q 373 106 328 46 q 419 269 419 166 q 365 427 419 371 q 207 482 311 482 l 157 482 l 157 545 l 211 545 q 351 605 297 545 q 406 759 406 667 q 367 898 406 850 q 260 946 329 946 q 177 931 214 946 q 93 872 139 916 l 52 916 q 150 985 101 964 q 258 1006 199 1006 z "},"4":{"ha":555,"x_min":25,"x_max":538,"o":"m 432 286 l 538 286 l 538 225 l 432 225 l 432 0 l 367 0 l 367 225 l 25 225 l 25 282 l 350 1003 l 432 1003 l 432 286 m 367 286 l 367 765 q 372 926 367 843 l 368 926 l 318 799 l 93 286 l 367 286 z "},"5":{"ha":555,"x_min":66,"x_max":493,"o":"m 439 928 l 158 928 l 134 579 q 252 593 196 593 q 428 519 363 593 q 493 315 493 445 q 422 76 493 165 q 232 -14 351 -14 q 66 24 126 -14 l 66 98 q 230 46 141 46 q 372 120 319 46 q 425 308 425 194 q 379 478 425 422 q 248 534 332 534 q 107 514 178 534 l 74 557 l 103 991 l 439 991 l 439 928 z "},"6":{"ha":555,"x_min":68,"x_max":494,"o":"m 296 612 q 441 530 388 612 q 494 302 494 448 q 438 71 494 156 q 286 -14 382 -14 q 124 98 180 -14 q 68 422 68 210 q 355 1006 68 1006 q 441 990 407 1006 l 441 925 q 350 942 403 942 q 197 829 252 942 q 135 503 142 717 l 140 503 q 204 584 163 555 q 296 612 244 612 m 427 299 q 427 361 427 299 q 391 486 427 422 q 287 550 355 550 q 177 495 218 550 q 136 355 136 440 q 155 197 136 269 q 288 50 195 50 q 391 113 355 50 q 427 299 427 176 z "},"7":{"ha":555,"x_min":39,"x_max":507,"o":"m 39 928 l 39 991 l 507 991 l 507 936 l 201 0 l 132 0 l 440 928 l 39 928 z "},"8":{"ha":555,"x_min":49,"x_max":509,"o":"m 72 775 q 130 942 72 878 q 280 1006 188 1006 q 430 945 373 1006 q 488 778 488 885 q 325 517 488 613 q 434 429 398 467 q 509 241 509 351 q 446 59 509 132 q 282 -14 383 -14 q 115 56 182 -14 q 49 237 49 126 q 86 391 49 323 q 215 517 124 458 q 72 775 72 627 m 419 772 q 382 899 419 854 q 280 945 345 945 q 177 899 214 945 q 140 778 140 853 q 171 650 140 703 q 278 547 201 598 q 419 772 419 632 m 151 379 q 118 237 118 323 q 163 99 118 151 q 280 47 208 47 q 396 101 353 47 q 439 249 439 155 q 298 467 439 370 l 265 489 q 151 379 183 437 z "},"9":{"ha":555,"x_min":56,"x_max":482,"o":"m 254 379 q 109 463 161 379 q 56 691 56 546 q 113 921 56 836 q 273 1006 170 1006 q 429 897 375 1006 q 482 582 482 788 q 408 136 482 286 q 191 -14 334 -14 q 137 -9 163 -14 q 98 1 110 -4 l 98 66 q 196 50 136 50 q 351 164 294 50 q 415 489 408 277 l 410 489 q 346 408 387 437 q 254 379 306 379 m 268 942 q 162 878 200 942 q 123 691 123 814 q 159 505 123 569 q 263 441 195 441 q 373 499 332 441 q 414 647 414 556 q 396 805 414 737 q 345 907 378 872 q 268 942 313 942 z "},"\r":{"ha":361,"x_min":0,"x_max":0,"o":""}," ":{"ha":261,"x_min":0,"x_max":0,"o":""},"!":{"ha":306,"x_min":100,"x_max":205,"o":"m 171 249 l 134 249 l 110 991 l 195 991 l 171 249 m 100 61 q 100 97 100 61 q 153 134 100 134 q 205 61 205 134 q 191 7 205 24 q 153 -11 176 -11 q 100 61 100 -11 z "},"\"":{"ha":465,"x_min":90,"x_max":375,"o":"m 154 633 l 113 633 l 90 991 l 174 991 l 154 633 m 355 633 l 314 633 l 292 991 l 375 991 l 355 633 z "},"#":{"ha":589,"x_min":25,"x_max":562,"o":"m 562 707 l 562 648 l 443 648 l 412 378 l 530 378 l 530 317 l 406 317 l 370 0 l 314 0 l 351 317 l 193 317 l 157 0 l 104 0 l 139 317 l 25 317 l 25 378 l 146 378 l 176 648 l 56 648 l 56 707 l 183 707 l 215 991 l 271 991 l 237 707 l 397 707 l 431 991 l 482 991 l 450 707 l 562 707 m 231 648 l 200 378 l 358 378 l 390 648 l 231 648 z "},"$":{"ha":555,"x_min":64,"x_max":493,"o":"m 304 1055 l 304 932 q 479 890 400 928 l 454 832 q 304 871 375 869 l 304 526 q 450 433 406 485 q 493 299 493 380 q 442 159 493 217 q 304 87 391 102 l 304 -81 l 249 -81 l 249 83 q 64 119 130 83 l 64 189 q 149 157 98 169 q 249 146 199 146 l 249 481 q 110 574 150 522 q 71 711 71 627 q 120 856 71 796 q 249 929 170 916 l 249 1055 l 304 1055 m 249 867 q 168 814 199 856 q 136 711 136 772 q 163 614 136 651 q 249 549 191 577 l 249 867 m 393 204 q 427 299 427 244 q 398 393 427 355 q 304 458 370 431 l 304 151 q 393 204 359 164 z "},"%":{"ha":819,"x_min":64,"x_max":755,"o":"m 64 696 q 64 771 64 696 q 98 926 64 847 q 200 1006 133 1006 q 303 927 268 1006 q 339 697 339 848 q 302 465 339 547 q 200 383 266 383 q 99 464 134 383 q 64 696 64 545 m 278 0 l 218 0 l 541 991 l 600 991 l 278 0 m 199 953 q 142 891 159 953 q 125 697 125 829 q 142 503 125 565 q 201 440 160 440 q 260 503 241 440 q 278 697 278 566 q 199 953 278 953 m 481 301 q 481 377 481 301 q 515 530 481 452 q 617 608 550 608 q 720 529 684 608 q 755 299 755 450 q 719 67 755 149 q 616 -14 682 -14 q 516 68 551 -14 q 481 301 481 149 m 615 555 q 559 493 576 555 q 542 299 542 431 q 559 105 542 168 q 618 43 576 43 q 676 105 658 43 q 694 300 694 168 q 615 555 694 555 z "},"&":{"ha":566,"x_min":45,"x_max":567,"o":"m 222 -14 q 92 53 140 -14 q 45 239 45 120 q 104 441 45 358 q 193 534 133 483 q 127 686 142 629 q 113 824 113 743 q 148 956 113 905 q 244 1006 183 1006 q 341 954 306 1006 q 376 810 376 903 q 351 651 376 718 q 265 525 326 585 l 425 239 q 464 437 464 319 l 528 437 q 508 299 528 374 q 461 176 488 224 l 567 0 l 493 0 l 427 121 q 329 16 376 45 q 222 -14 283 -14 m 241 945 q 193 910 210 945 q 176 813 176 875 q 193 685 176 751 q 236 576 210 619 q 295 676 278 619 q 313 810 313 733 q 241 945 313 945 m 221 486 q 133 372 156 425 q 110 235 110 319 q 142 100 110 150 q 225 50 174 50 q 317 81 277 50 q 393 178 357 113 l 221 486 z "},"'":{"ha":264,"x_min":90,"x_max":174,"o":"m 154 633 l 113 633 l 90 991 l 174 991 l 154 633 z "},"(":{"ha":383,"x_min":71,"x_max":326,"o":"m 326 991 q 188 700 235 856 q 142 380 142 543 q 191 57 142 217 q 325 -220 240 -103 l 272 -220 q 122 50 174 -106 q 71 381 71 206 q 123 715 71 555 q 272 991 176 876 l 326 991 z "},")":{"ha":383,"x_min":57,"x_max":313,"o":"m 111 991 q 261 714 209 876 q 313 380 313 553 q 260 50 313 207 q 111 -220 208 -107 l 58 -220 q 193 62 145 -97 q 241 384 241 222 q 194 701 241 545 q 57 991 147 857 l 111 991 z "},"*":{"ha":505,"x_min":64,"x_max":441,"o":"m 275 886 l 432 925 l 441 852 l 288 847 l 393 693 l 328 663 l 254 823 l 175 661 l 113 693 l 214 847 l 64 851 l 75 924 l 231 886 l 212 1055 l 294 1055 l 275 886 z "},"+":{"ha":555,"x_min":40,"x_max":515,"o":"m 306 518 l 515 518 l 515 463 l 306 463 l 306 170 l 250 170 l 250 463 l 40 463 l 40 518 l 250 518 l 250 812 l 306 812 l 306 518 z "},",":{"ha":286,"x_min":53,"x_max":208,"o":"m 199 139 l 208 123 q 96 -179 163 -32 l 53 -179 q 121 139 103 -8 l 199 139 z "},"-":{"ha":350,"x_min":36,"x_max":314,"o":"m 314 340 l 36 340 l 36 410 l 314 410 l 314 340 z "},".":{"ha":286,"x_min":90,"x_max":196,"o":"m 90 61 q 90 97 90 61 q 143 134 90 134 q 196 61 196 134 q 181 7 196 24 q 143 -11 167 -11 q 90 61 90 -11 z "},"/":{"ha":484,"x_min":35,"x_max":457,"o":"m 103 0 l 35 0 l 392 991 l 457 991 l 103 0 z "},":":{"ha":286,"x_min":90,"x_max":196,"o":"m 90 665 q 90 701 90 665 q 143 737 90 737 q 196 665 196 737 q 181 611 196 629 q 143 593 167 593 q 90 665 90 593 m 90 61 q 90 97 90 61 q 143 134 90 134 q 196 61 196 134 q 181 7 196 24 q 143 -11 167 -11 q 90 61 90 -11 z "},";":{"ha":286,"x_min":53,"x_max":208,"o":"m 90 665 q 90 701 90 665 q 143 737 90 737 q 196 665 196 737 q 181 611 196 629 q 143 593 167 593 q 90 665 90 593 m 199 139 l 208 123 q 96 -179 163 -32 l 53 -179 q 121 139 103 -8 l 199 139 z "},"<":{"ha":555,"x_min":40,"x_max":517,"o":"m 517 717 l 110 490 l 517 264 l 517 195 l 40 468 l 40 514 l 517 785 l 517 717 z "},"=":{"ha":555,"x_min":40,"x_max":515,"o":"m 515 607 l 40 607 l 40 663 l 515 663 l 515 607 m 515 315 l 40 315 l 40 371 l 515 371 l 515 315 z "},">":{"ha":555,"x_min":39,"x_max":515,"o":"m 515 514 l 515 468 l 39 195 l 39 264 l 446 490 l 39 717 l 39 785 l 515 514 z "},"?":{"ha":392,"x_min":24,"x_max":359,"o":"m 24 956 q 178 1006 92 1006 q 312 949 264 1006 q 359 786 359 893 q 338 647 359 703 q 252 494 316 591 q 195 387 211 433 q 179 273 179 341 l 179 249 l 129 249 l 129 283 q 143 411 129 359 q 196 519 157 462 q 273 664 256 610 q 292 789 292 718 q 261 902 292 860 q 176 945 231 945 q 114 935 140 945 q 56 904 87 925 l 24 956 m 158 -11 q 106 61 106 -11 q 158 134 106 134 q 211 61 211 134 q 196 7 211 24 q 158 -11 182 -11 z "},"@":{"ha":836,"x_min":75,"x_max":766,"o":"m 396 -122 q 158 10 240 -122 q 75 393 75 142 q 75 404 75 399 q 120 717 75 581 q 249 926 165 853 q 440 999 332 999 q 444 999 442 999 q 612 936 537 999 q 727 758 687 872 q 766 498 766 644 q 614 157 766 157 q 534 192 559 157 q 507 297 509 227 l 501 297 q 465 190 490 223 q 395 157 439 157 q 302 220 335 157 q 269 399 269 283 q 447 720 269 720 q 558 700 505 720 l 545 376 l 545 335 q 614 221 545 221 q 680 289 659 221 q 700 503 700 357 q 700 508 700 505 q 668 731 700 631 q 577 884 635 830 q 446 939 519 939 q 443 939 445 939 q 283 871 353 939 q 175 683 213 804 q 138 404 138 562 q 208 59 138 182 q 400 -64 277 -64 q 486 -51 446 -64 q 553 -17 527 -38 l 553 -81 q 396 -122 485 -122 m 440 664 q 363 596 389 664 q 336 396 336 528 q 407 221 336 221 q 455 277 437 221 q 478 452 472 334 l 489 659 q 440 664 469 664 z "},"A":{"ha":551,"x_min":0,"x_max":551,"o":"m 551 0 l 484 0 l 396 359 l 155 359 l 69 0 l 0 0 l 239 991 l 307 991 l 551 0 m 380 427 l 293 796 q 272 914 278 866 q 253 796 266 852 l 168 427 l 380 427 z "},"B":{"ha":615,"x_min":109,"x_max":561,"o":"m 109 991 l 298 991 q 478 931 416 991 q 541 755 541 871 q 393 525 541 554 l 393 519 q 520 444 479 502 q 561 282 561 386 q 502 75 561 149 q 336 0 443 0 l 109 0 l 109 991 m 175 930 l 175 550 l 300 550 q 432 600 391 550 q 472 757 472 650 q 428 886 472 841 q 298 930 384 930 l 175 930 m 175 489 l 175 61 l 328 61 q 492 283 492 61 q 444 436 492 382 q 309 489 396 489 l 175 489 z "},"C":{"ha":583,"x_min":75,"x_max":549,"o":"m 385 -14 q 160 123 245 -14 q 75 491 75 260 q 75 498 75 495 q 160 872 75 736 q 390 1007 244 1007 q 549 965 480 1007 l 518 907 q 389 943 461 943 q 210 825 276 943 q 144 497 144 707 q 144 490 144 493 q 212 171 144 292 q 391 50 280 50 q 395 50 393 50 q 528 78 471 50 l 528 17 q 389 -14 475 -14 q 385 -14 387 -14 z "},"D":{"ha":674,"x_min":109,"x_max":600,"o":"m 109 991 l 289 991 q 521 868 442 991 q 600 505 600 744 q 285 0 600 0 l 109 0 l 109 991 m 175 930 l 175 61 l 281 61 q 530 501 530 61 q 468 821 530 711 q 286 930 406 930 l 175 930 z "},"E":{"ha":534,"x_min":109,"x_max":468,"o":"m 468 928 l 175 928 l 175 551 l 452 551 l 452 488 l 175 488 l 175 64 l 468 64 l 468 0 l 109 0 l 109 991 l 468 991 l 468 928 z "},"F":{"ha":494,"x_min":109,"x_max":469,"o":"m 469 928 l 175 928 l 175 507 l 453 507 l 453 443 l 175 443 l 175 0 l 109 0 l 109 991 l 469 991 l 469 928 z "},"G":{"ha":729,"x_min":75,"x_max":652,"o":"m 652 500 l 652 31 q 416 -14 538 -14 q 165 122 254 -14 q 75 499 75 258 q 168 873 75 740 q 428 1006 260 1006 q 640 942 541 1006 l 608 884 q 428 943 515 943 q 218 829 290 943 q 146 499 146 715 q 218 167 146 283 q 422 50 290 50 q 585 75 518 50 l 585 436 l 435 436 l 435 500 l 652 500 z "},"H":{"ha":696,"x_min":109,"x_max":587,"o":"m 587 0 l 521 0 l 521 488 l 175 488 l 175 0 l 109 0 l 109 991 l 175 991 l 175 551 l 521 551 l 521 991 l 587 991 l 587 0 z "},"I":{"ha":283,"x_min":109,"x_max":175,"o":"m 175 0 l 109 0 l 109 991 l 175 991 l 175 0 z "},"J":{"ha":272,"x_min":-61,"x_max":168,"o":"m 168 991 l 168 -16 q 130 -191 168 -132 q 18 -250 92 -250 q -61 -233 -28 -250 l -61 -171 q 17 -184 -26 -184 q 81 -145 60 -184 q 102 -17 102 -105 l 102 991 l 168 991 z "},"K":{"ha":559,"x_min":109,"x_max":559,"o":"m 175 0 l 109 0 l 109 991 l 175 991 l 175 467 q 468 991 210 532 l 541 991 l 292 555 l 559 0 l 485 0 l 252 494 l 175 393 l 175 0 z "},"L":{"ha":482,"x_min":109,"x_max":454,"o":"m 175 64 l 454 64 l 454 0 l 109 0 l 109 991 l 175 991 l 175 64 z "},"M":{"ha":946,"x_min":109,"x_max":838,"o":"m 838 0 l 771 0 l 771 717 q 778 901 771 766 l 772 901 l 510 0 l 435 0 l 171 903 l 165 903 q 172 722 172 767 l 172 0 l 109 0 l 109 991 l 207 991 l 429 233 q 468 62 458 133 l 473 62 q 515 232 481 118 l 736 991 l 838 991 l 838 0 z "},"N":{"ha":739,"x_min":109,"x_max":631,"o":"m 631 0 l 546 0 l 171 889 l 165 889 q 174 711 174 796 l 174 0 l 109 0 l 109 991 l 195 991 l 567 113 l 571 113 q 566 298 566 231 l 566 991 l 631 991 l 631 0 z "},"O":{"ha":722,"x_min":75,"x_max":647,"o":"m 363 1006 q 574 873 502 1006 q 647 496 647 742 q 573 118 647 250 q 360 -14 500 -14 q 148 120 220 -14 q 75 498 75 253 q 363 1006 75 1006 m 578 496 q 578 607 578 496 q 524 830 578 718 q 362 942 469 942 q 199 829 254 942 q 144 496 144 716 q 200 163 144 277 q 361 50 255 50 q 523 162 468 50 q 578 496 578 275 z "},"P":{"ha":570,"x_min":109,"x_max":524,"o":"m 109 991 l 244 991 q 456 923 389 991 q 524 705 524 854 q 454 482 524 555 q 245 410 385 410 l 175 410 l 175 0 l 109 0 l 109 991 m 175 930 l 175 471 l 241 471 q 407 526 358 471 q 456 703 456 581 q 406 878 456 825 q 249 930 356 930 l 175 930 z "},"Q":{"ha":722,"x_min":75,"x_max":647,"o":"m 75 498 q 363 1006 75 1006 q 574 873 502 1006 q 647 497 647 742 q 599 175 647 300 q 461 7 551 49 l 606 -236 l 521 -236 l 395 -11 l 361 -14 q 148 120 220 -14 q 75 498 75 253 m 578 496 q 578 607 578 496 q 524 830 578 718 q 362 942 469 942 q 199 829 254 942 q 144 496 144 716 q 200 163 144 277 q 361 50 255 50 q 523 162 468 50 q 578 496 578 275 z "},"R":{"ha":590,"x_min":109,"x_max":561,"o":"m 109 991 l 244 991 q 456 924 388 991 q 524 718 524 856 q 486 547 524 612 q 364 449 448 481 l 561 0 l 486 0 l 301 433 l 175 433 l 175 0 l 109 0 l 109 991 m 175 926 l 175 494 l 268 494 q 407 550 359 494 q 456 716 456 606 q 406 877 456 827 q 249 926 357 926 l 175 926 z "},"S":{"ha":549,"x_min":58,"x_max":489,"o":"m 249 50 q 374 108 325 50 q 422 251 422 165 q 388 385 422 336 q 256 481 353 433 q 141 556 178 520 q 85 640 103 592 q 66 755 66 688 q 66 764 66 760 q 133 936 66 866 q 294 1006 199 1006 q 297 1006 295 1006 q 476 965 401 1006 l 450 901 q 299 940 375 940 q 178 890 224 940 q 132 757 132 840 q 166 629 132 674 q 296 533 199 583 q 443 419 396 484 q 489 260 489 353 q 421 62 489 138 q 249 -14 353 -14 q 58 21 130 -14 l 58 93 q 148 61 96 73 q 249 50 199 50 z "},"T":{"ha":482,"x_min":9,"x_max":471,"o":"m 471 928 l 273 928 l 273 0 l 207 0 l 207 928 l 9 928 l 9 991 l 471 991 l 471 928 z "},"U":{"ha":686,"x_min":100,"x_max":586,"o":"m 586 991 l 586 322 q 346 -14 586 -14 q 163 73 226 -14 q 100 322 100 159 l 100 991 l 167 991 l 167 314 q 213 118 167 186 q 346 50 260 50 q 475 118 431 50 q 519 317 519 185 l 519 991 l 586 991 z "},"V":{"ha":542,"x_min":0,"x_max":542,"o":"m 307 0 l 233 0 l 0 991 l 69 991 l 231 294 q 255 178 249 218 q 268 82 262 138 q 291 223 282 183 l 473 991 l 542 991 l 307 0 z "},"W":{"ha":946,"x_min":7,"x_max":939,"o":"m 728 0 l 647 0 l 496 742 q 472 904 491 764 l 447 743 l 298 0 l 220 0 l 7 991 l 77 991 l 216 309 q 258 75 250 136 q 297 306 273 183 l 436 991 l 511 991 l 650 309 q 681 125 673 187 l 688 75 q 726 309 707 217 l 871 991 l 939 991 l 728 0 z "},"X":{"ha":485,"x_min":14,"x_max":471,"o":"m 296 511 l 471 0 l 401 0 l 253 456 l 81 0 l 14 0 l 221 526 l 43 991 l 113 991 l 260 579 l 403 991 l 471 991 l 296 511 z "},"Y":{"ha":465,"x_min":0,"x_max":465,"o":"m 265 0 l 199 0 l 199 387 l 0 991 l 71 991 l 233 479 l 395 991 l 465 991 l 265 387 l 265 0 z "},"Z":{"ha":436,"x_min":39,"x_max":408,"o":"m 408 64 l 408 0 l 39 0 l 39 60 l 326 926 l 43 926 l 43 991 l 400 991 l 400 930 l 109 64 l 408 64 z "},"[":{"ha":437,"x_min":118,"x_max":387,"o":"m 387 930 l 182 930 l 182 -158 l 387 -158 l 387 -220 l 118 -220 l 118 991 l 387 991 l 387 930 z "},"\\":{"ha":484,"x_min":35,"x_max":457,"o":"m 457 0 l 389 0 l 35 991 l 100 991 l 457 0 z "},"]":{"ha":437,"x_min":50,"x_max":319,"o":"m 319 -220 l 50 -220 l 50 -158 l 256 -158 l 256 930 l 50 930 l 50 991 l 319 991 l 319 -220 z "},"^":{"ha":555,"x_min":25,"x_max":530,"o":"m 530 514 l 461 514 l 278 914 l 93 514 l 25 514 l 254 990 l 300 990 l 530 514 z "},"_":{"ha":571,"x_min":-3,"x_max":574,"o":"m 574 -180 l -3 -180 l -3 -125 l 574 -125 l 574 -180 z "},"`":{"ha":764,"x_min":294,"x_max":509,"o":"m 294 1064 l 379 1064 q 435 961 399 1019 q 509 856 471 903 l 509 842 l 476 842 q 376 941 433 876 q 294 1053 319 1006 l 294 1064 z "},"a":{"ha":532,"x_min":53,"x_max":436,"o":"m 104 703 q 269 750 180 750 q 396 692 357 750 q 436 501 436 635 l 436 0 l 383 0 l 375 103 l 372 103 q 212 -14 319 -14 q 96 43 140 -14 q 53 202 53 101 q 116 364 53 302 q 293 431 179 425 l 372 435 l 372 496 q 346 646 372 600 q 259 693 320 693 q 132 652 198 693 l 104 703 m 121 196 q 149 80 121 118 q 227 41 176 41 q 334 110 296 41 q 372 302 372 178 l 372 379 l 296 375 q 121 196 121 366 z "},"b":{"ha":606,"x_min":98,"x_max":542,"o":"m 326 749 q 542 370 542 749 q 488 84 542 182 q 334 -14 435 -14 q 237 16 280 -14 q 165 102 194 45 l 160 102 l 151 0 l 98 0 l 98 1055 l 163 1055 l 163 728 l 160 639 l 165 639 q 326 749 224 749 m 163 370 l 163 353 q 326 45 163 45 q 438 124 401 45 q 475 368 475 204 q 438 610 475 531 q 320 689 402 689 q 201 614 239 689 q 163 370 163 540 z "},"c":{"ha":431,"x_min":65,"x_max":403,"o":"m 288 -14 q 121 82 178 -14 q 65 366 65 178 q 122 652 65 553 q 289 750 179 750 q 403 725 357 750 l 378 668 q 294 689 333 689 q 132 367 132 689 q 294 45 132 45 q 399 66 342 45 l 399 12 q 345 -6 378 1 q 288 -14 313 -14 z "},"d":{"ha":606,"x_min":64,"x_max":507,"o":"m 507 0 l 454 0 l 449 103 l 443 103 q 278 -14 388 -14 q 64 367 64 -14 q 118 652 64 555 q 275 750 172 750 q 369 722 325 750 q 440 643 414 693 l 446 643 l 443 725 l 443 1055 l 507 1055 l 507 0 m 443 325 l 443 367 q 403 611 443 533 q 282 689 363 689 q 166 608 202 689 q 131 366 131 527 q 168 123 131 204 q 282 43 204 43 q 401 115 360 43 q 443 325 443 186 z "},"e":{"ha":545,"x_min":65,"x_max":479,"o":"m 307 -14 q 127 85 191 -14 q 65 369 65 186 q 121 651 65 551 q 282 750 177 750 q 427 663 374 750 q 479 428 479 576 l 479 368 l 131 368 q 310 47 134 47 q 456 93 380 47 l 456 31 q 307 -14 385 -14 m 415 427 q 378 620 415 548 q 278 692 341 692 q 132 427 145 692 l 415 427 z "},"f":{"ha":307,"x_min":14,"x_max":342,"o":"m 107 799 q 140 1001 107 939 q 256 1063 174 1063 q 342 1046 304 1063 l 319 986 q 254 1003 285 1003 q 189 959 205 1001 q 171 798 172 916 l 171 736 l 286 736 l 286 679 l 171 679 l 171 0 l 107 0 l 107 679 l 14 679 l 14 715 l 107 743 l 107 799 z "},"g":{"ha":503,"x_min":24,"x_max":496,"o":"m 243 98 l 289 98 q 442 47 388 98 q 496 -100 496 -4 q 423 -271 496 -208 q 231 -334 350 -334 q 77 -283 131 -334 q 24 -138 24 -233 q 170 58 24 3 q 94 163 94 91 q 115 220 94 194 q 179 278 135 245 q 94 361 123 304 q 65 497 65 418 q 115 682 65 614 q 250 750 164 750 q 328 736 296 750 l 484 736 l 484 690 l 383 679 q 416 604 403 653 q 429 503 429 555 q 381 329 429 395 q 253 262 332 262 l 237 262 l 222 264 q 170 216 187 239 q 153 163 153 193 q 177 116 153 134 q 243 98 201 98 m 367 503 q 336 646 367 595 q 248 697 306 697 q 159 645 190 697 q 127 500 127 592 q 160 360 127 408 q 249 313 193 313 q 367 503 367 313 m 289 36 l 241 36 q 131 -10 175 36 q 87 -130 87 -56 q 124 -242 87 -203 q 233 -281 161 -281 q 378 -233 325 -281 q 431 -103 431 -186 q 394 0 431 -36 q 289 36 358 36 z "},"h":{"ha":590,"x_min":98,"x_max":494,"o":"m 163 1055 l 163 713 q 160 635 163 663 l 165 635 q 231 720 187 690 q 322 750 274 750 q 454 690 414 750 q 494 507 494 631 l 494 0 l 431 0 l 431 507 q 405 648 431 606 q 319 690 379 690 q 202 620 241 690 q 163 403 163 550 l 163 0 l 98 0 l 98 1055 l 163 1055 z "},"i":{"ha":261,"x_min":89,"x_max":174,"o":"m 89 941 q 89 955 89 941 q 101 987 89 970 q 133 1004 113 1004 q 163 987 152 1004 q 174 941 174 970 q 163 893 174 911 q 133 876 152 876 q 101 894 114 876 q 89 941 89 911 m 163 0 l 98 0 l 98 736 l 163 736 l 163 0 z "},"j":{"ha":261,"x_min":-3,"x_max":174,"o":"m 89 941 q 89 955 89 941 q 101 987 89 970 q 133 1004 113 1004 q 163 987 152 1004 q 174 941 174 970 q 163 893 174 911 q 133 876 152 876 q 101 894 114 876 q 89 941 89 911 m 163 736 l 163 -136 q 134 -286 163 -237 q 43 -334 104 -334 q -3 -322 15 -334 l -3 -261 q 40 -272 18 -272 q 85 -242 71 -272 q 98 -146 98 -212 l 98 736 l 163 736 z "},"k":{"ha":482,"x_min":98,"x_max":472,"o":"m 163 0 l 98 0 l 98 1055 l 163 1055 l 163 488 l 158 364 l 164 364 l 205 439 l 387 736 l 457 736 l 288 465 l 472 0 l 404 0 l 244 406 l 163 298 l 163 0 z "},"l":{"ha":261,"x_min":98,"x_max":163,"o":"m 163 0 l 98 0 l 98 1055 l 163 1055 l 163 0 z "},"m":{"ha":884,"x_min":98,"x_max":787,"o":"m 314 750 q 461 623 429 750 q 526 720 488 690 q 627 750 565 750 q 749 686 710 750 q 787 481 787 621 l 787 0 l 724 0 l 724 501 q 615 686 724 686 q 508 623 542 686 q 475 431 475 559 l 475 0 l 411 0 l 411 501 q 385 641 411 595 q 302 686 358 686 q 196 620 230 686 q 163 404 163 554 l 163 0 l 98 0 l 98 736 l 153 736 l 158 633 l 164 633 q 314 750 208 750 z "},"n":{"ha":590,"x_min":98,"x_max":494,"o":"m 323 750 q 452 692 410 750 q 494 509 494 634 l 494 0 l 431 0 l 431 507 q 322 690 431 690 q 201 622 239 690 q 163 404 163 553 l 163 0 l 98 0 l 98 736 l 153 736 l 158 633 l 164 633 q 230 719 186 688 q 323 750 273 750 z "},"o":{"ha":576,"x_min":64,"x_max":513,"o":"m 289 750 q 454 650 395 750 q 513 367 513 551 q 454 85 513 184 q 287 -14 395 -14 q 121 85 178 -14 q 64 370 64 184 q 289 750 64 750 m 288 689 q 169 610 206 689 q 131 370 131 531 q 288 47 131 47 q 446 368 446 47 q 288 689 446 689 z "},"p":{"ha":606,"x_min":98,"x_max":542,"o":"m 326 750 q 542 370 542 750 q 489 86 542 185 q 335 -14 435 -14 q 234 17 279 -14 q 164 102 188 48 l 158 102 l 163 21 l 163 -334 l 98 -334 l 98 736 l 151 736 l 158 635 l 164 635 q 234 720 191 690 q 326 750 276 750 m 163 395 l 163 374 q 203 125 163 205 q 322 45 243 45 q 438 124 401 45 q 475 368 475 203 q 439 611 475 533 q 322 689 404 689 q 202 617 241 689 q 163 395 163 546 z "},"q":{"ha":606,"x_min":64,"x_max":507,"o":"m 443 107 q 278 -14 385 -14 q 64 367 64 -14 q 120 654 64 558 q 280 750 176 750 q 440 637 385 750 l 446 637 l 456 736 l 507 736 l 507 -334 l 443 -334 l 443 -16 q 449 107 443 30 l 443 107 m 443 334 l 443 367 q 403 611 443 533 q 282 689 363 689 q 166 608 202 689 q 131 362 131 527 q 168 121 131 197 q 283 45 205 45 q 402 119 361 45 q 443 334 443 193 z "},"r":{"ha":379,"x_min":98,"x_max":367,"o":"m 302 750 q 367 741 336 750 l 351 676 q 301 686 327 686 q 298 686 299 686 q 232 648 263 686 q 181 542 200 610 q 163 395 163 473 q 163 390 163 393 l 163 0 l 98 0 l 98 736 l 151 736 l 158 607 l 163 607 q 302 750 214 750 z "},"s":{"ha":437,"x_min":50,"x_max":389,"o":"m 201 47 q 291 84 258 47 q 323 184 323 121 q 299 267 323 233 q 204 347 275 302 q 107 420 134 392 q 65 483 80 448 q 50 567 50 517 q 104 698 50 646 q 243 750 158 750 q 389 708 328 750 l 355 652 q 240 689 300 689 q 146 655 180 689 q 113 570 113 622 q 136 485 113 518 q 233 406 159 452 q 333 330 306 358 q 387 181 387 271 q 338 39 387 91 q 197 -14 289 -14 q 50 28 105 -14 l 50 103 q 117 63 75 78 q 201 47 158 47 z "},"t":{"ha":304,"x_min":29,"x_max":286,"o":"m 160 736 l 277 736 l 277 679 l 160 679 l 160 175 q 176 73 160 100 q 233 46 193 46 q 286 54 263 46 l 286 0 q 210 -14 256 -14 q 96 157 96 -14 l 96 679 l 29 679 l 29 717 l 94 736 l 115 911 l 160 911 l 160 736 z "},"u":{"ha":590,"x_min":96,"x_max":492,"o":"m 492 0 l 437 0 l 429 103 l 424 103 q 358 17 400 47 q 267 -14 317 -14 q 136 50 178 -14 q 96 256 96 113 l 96 736 l 160 736 l 160 256 q 186 97 160 147 q 267 46 212 46 q 389 114 351 46 q 428 332 428 182 l 428 736 l 492 736 l 492 0 z "},"v":{"ha":443,"x_min":7,"x_max":436,"o":"m 257 0 l 180 0 l 7 736 l 72 736 l 182 262 q 218 83 201 180 l 224 83 q 241 179 230 127 q 371 736 252 231 l 436 736 l 257 0 z "},"w":{"ha":762,"x_min":14,"x_max":749,"o":"m 583 0 l 507 0 l 406 498 l 403 510 l 382 640 l 380 640 l 371 583 l 355 498 l 250 0 l 174 0 l 14 736 l 78 736 l 170 307 l 212 83 l 216 83 q 256 309 229 184 l 347 736 l 415 736 l 507 307 q 546 83 518 259 l 550 83 q 566 178 551 102 q 685 736 581 254 l 749 736 l 583 0 z "},"x":{"ha":458,"x_min":24,"x_max":435,"o":"m 262 374 l 435 0 l 367 0 l 229 318 l 90 0 l 24 0 l 199 382 l 37 736 l 107 736 l 231 437 l 359 736 l 427 736 l 262 374 z "},"y":{"ha":443,"x_min":-1,"x_max":436,"o":"m 57 -334 q -1 -322 32 -334 l -1 -264 q 52 -273 27 -273 q 115 -239 92 -273 q 158 -126 139 -205 l 191 1 l 7 736 l 72 736 l 183 277 q 221 90 203 189 l 227 90 q 262 278 241 187 l 371 736 l 436 736 l 221 -139 q 158 -286 197 -239 q 57 -334 119 -334 z "},"z":{"ha":367,"x_min":40,"x_max":335,"o":"m 335 57 l 335 0 l 40 0 l 40 52 l 257 679 l 54 679 l 54 736 l 325 736 l 325 684 l 109 57 l 335 57 z "},"{":{"ha":500,"x_min":74,"x_max":429,"o":"m 281 778 l 281 564 q 250 441 281 481 q 149 389 219 402 l 149 383 q 251 330 220 370 q 281 208 281 290 l 281 -5 q 317 -125 281 -86 q 429 -165 353 -164 l 429 -220 q 270 -160 327 -217 q 214 -3 214 -102 l 214 216 q 201 305 214 276 q 158 349 188 334 q 74 363 127 363 l 74 410 q 200 465 173 410 q 214 555 214 496 l 214 775 q 271 932 214 875 q 429 991 328 989 l 429 937 q 317 897 353 936 q 281 778 281 859 z "},"|":{"ha":555,"x_min":245,"x_max":310,"o":"m 310 -334 l 245 -334 l 245 1055 l 310 1055 l 310 -334 z "},"}":{"ha":500,"x_min":71,"x_max":427,"o":"m 286 775 l 286 555 q 299 467 286 496 q 343 423 313 438 q 427 410 374 410 l 427 363 q 300 307 327 363 q 286 216 286 277 l 286 -3 q 230 -160 286 -102 q 71 -220 173 -217 l 71 -165 q 183 -125 146 -164 q 220 -5 220 -86 l 220 208 q 250 330 220 290 q 351 383 281 370 l 351 389 q 251 441 282 401 q 220 564 220 481 l 220 778 q 183 897 220 859 q 71 937 146 936 l 71 991 q 229 932 172 989 q 286 775 286 875 z "},"~":{"ha":555,"x_min":40,"x_max":515,"o":"m 393 424 q 338 430 359 424 q 271 462 317 437 q 205 494 226 487 q 160 501 185 501 q 102 479 136 501 q 40 419 68 457 l 40 486 q 165 558 91 558 q 217 552 193 558 q 297 514 241 545 q 389 482 353 482 q 457 504 425 482 q 515 561 490 525 l 515 494 q 393 424 465 424 z "},"¡":{"ha":306,"x_min":100,"x_max":205,"o":"m 153 737 q 191 720 176 737 q 205 665 205 702 q 153 593 205 593 q 100 665 100 593 q 153 737 100 737 m 195 -265 l 110 -265 l 134 478 l 171 478 l 195 -265 z "},"¢":{"ha":555,"x_min":114,"x_max":452,"o":"m 353 1006 l 353 892 q 452 867 412 888 l 427 808 q 343 828 378 828 q 221 747 260 828 q 182 507 182 666 q 343 189 182 189 q 447 211 390 189 l 447 154 q 353 127 412 134 l 353 -14 l 297 -14 l 297 131 q 114 507 114 163 q 297 888 114 850 l 297 1006 l 353 1006 z "},"£":{"ha":555,"x_min":54,"x_max":503,"o":"m 161 521 l 161 761 q 205 946 161 886 q 342 1006 250 1006 q 503 946 435 1006 l 465 895 q 402 934 431 924 q 342 945 376 945 q 255 901 281 945 q 228 760 228 857 l 228 521 l 397 521 l 397 463 l 228 463 l 228 268 q 146 64 228 123 l 500 64 l 500 0 l 62 0 l 62 56 q 135 131 109 75 q 161 267 161 186 l 161 463 l 54 463 l 54 521 l 161 521 z "},"¤":{"ha":770,"x_min":85,"x_max":684,"o":"m 591 659 q 652 490 652 585 q 591 322 652 396 l 684 229 l 644 191 l 551 282 q 383 224 479 224 q 215 283 287 224 l 125 192 l 86 232 l 176 322 q 118 490 118 397 q 176 657 118 583 l 85 750 l 123 789 l 215 696 q 384 757 289 757 q 551 697 479 757 l 643 789 l 684 750 l 591 659 m 379 705 q 233 643 296 705 q 171 497 171 580 q 171 490 171 494 q 233 338 171 400 q 385 277 294 277 q 537 339 475 277 q 600 490 600 401 q 600 497 600 494 q 537 642 600 579 q 390 705 473 705 q 385 705 387 705 q 379 705 382 705 z "},"¥":{"ha":555,"x_min":72,"x_max":482,"o":"m 461 444 l 461 389 l 311 389 l 311 253 l 461 253 l 461 197 l 311 197 l 311 0 l 241 0 l 241 197 l 96 197 l 96 253 l 241 253 l 241 387 l 240 389 l 96 389 l 96 444 l 225 444 l 72 991 l 138 991 l 278 472 l 415 991 l 482 991 l 328 444 l 461 444 z "},"¦":{"ha":555,"x_min":245,"x_max":310,"o":"m 310 514 l 245 514 l 245 1055 l 310 1055 l 310 514 m 310 -334 l 245 -334 l 245 208 l 310 208 l 310 -334 z "},"§":{"ha":473,"x_min":56,"x_max":407,"o":"m 56 582 q 82 676 56 636 q 155 736 109 715 q 69 884 69 795 q 122 1008 69 960 q 256 1055 174 1055 q 325 1048 297 1055 q 395 1018 352 1042 l 368 968 q 310 995 335 987 q 253 1002 285 1002 q 165 971 198 1002 q 132 894 132 941 q 155 819 132 848 q 253 747 178 790 q 354 677 328 703 q 394 622 380 652 q 407 548 407 592 q 385 460 407 503 q 326 396 362 418 q 388 328 370 363 q 407 250 407 294 q 353 117 407 167 q 207 66 298 66 q 56 104 115 66 l 56 172 q 207 122 112 122 q 306 158 268 122 q 343 241 343 193 q 320 319 343 289 q 231 389 298 349 l 167 426 q 56 582 56 491 m 203 705 q 139 662 161 692 q 118 589 118 631 q 154 510 118 546 q 281 431 189 475 q 343 547 343 467 q 294 649 343 611 q 203 705 268 671 z "},"¨":{"ha":764,"x_min":236,"x_max":528,"o":"m 236 941 q 236 955 236 941 q 249 983 236 969 q 279 997 261 997 q 309 983 297 997 q 321 941 321 969 q 309 899 321 913 q 279 885 297 885 q 249 899 261 885 q 236 941 236 913 m 443 942 q 443 955 443 942 q 455 983 443 969 q 485 997 467 997 q 515 983 503 997 q 528 941 528 969 q 515 899 528 913 q 485 885 503 885 q 455 900 467 885 q 443 942 443 914 z "},"©":{"ha":1156,"x_min":68,"x_max":1088,"o":"m 578 -14 q 508 -14 578 -14 q 319 56 437 -14 q 134 243 200 126 q 68 496 68 361 q 136 750 68 631 q 323 938 204 869 q 577 1006 441 1006 q 832 938 713 1006 q 1020 751 951 869 q 1088 497 1088 632 q 1021 244 1088 361 q 837 56 955 126 q 578 -14 718 -14 m 1025 494 q 1025 554 1025 494 q 966 716 1025 613 q 804 881 908 819 q 579 943 700 943 q 355 883 459 943 q 191 718 250 822 q 131 494 131 614 q 191 272 131 374 q 354 109 250 170 q 578 49 457 49 q 801 109 699 49 q 964 272 904 169 q 1025 494 1025 375 m 596 189 q 400 268 469 189 q 332 489 332 346 q 407 717 332 632 q 608 802 482 802 q 762 766 690 802 l 737 710 q 608 741 671 741 q 457 676 512 741 q 403 497 403 612 q 603 250 403 250 q 737 279 661 250 l 737 220 q 596 189 668 189 z "},"ª":{"ha":392,"x_min":39,"x_max":314,"o":"m 78 972 q 195 1003 133 1003 q 286 969 258 1003 q 314 863 314 936 l 314 554 l 275 554 l 265 611 l 260 611 q 143 546 213 546 q 68 580 97 546 q 39 673 39 614 q 76 766 39 733 q 196 807 114 800 l 258 812 l 258 861 q 242 934 258 912 q 185 956 226 956 q 97 929 145 956 l 78 972 m 97 669 q 161 593 97 593 q 233 628 208 593 q 258 725 258 663 l 258 770 l 216 765 q 124 738 151 759 q 97 669 97 716 z "},"«":{"ha":581,"x_min":56,"x_max":525,"o":"m 292 591 l 143 358 l 292 125 l 250 100 l 56 349 l 56 367 l 250 615 l 292 591 m 525 591 l 378 358 l 525 125 l 485 100 l 289 349 l 289 367 l 485 615 l 525 591 z "},"¬":{"ha":555,"x_min":40,"x_max":501,"o":"m 501 170 l 446 170 l 446 463 l 40 463 l 40 518 l 501 518 l 501 170 z "},"­":{"ha":350,"x_min":36,"x_max":314,"o":"m 314 340 l 36 340 l 36 410 l 314 410 l 314 340 z "},"®":{"ha":1156,"x_min":68,"x_max":1088,"o":"m 578 -14 q 508 -14 578 -14 q 319 56 437 -14 q 134 243 200 126 q 68 496 68 361 q 136 750 68 631 q 323 938 204 869 q 577 1006 441 1006 q 832 938 713 1006 q 1020 751 951 869 q 1088 497 1088 632 q 1021 244 1088 361 q 837 56 955 126 q 578 -14 718 -14 m 1025 494 q 1025 554 1025 494 q 966 716 1025 613 q 804 881 908 819 q 579 943 700 943 q 355 883 459 943 q 191 718 250 822 q 131 494 131 614 q 191 272 131 374 q 354 109 250 170 q 578 49 457 49 q 801 109 699 49 q 964 272 904 169 q 1025 494 1025 375 m 412 794 l 555 794 q 707 751 654 794 q 760 623 760 709 q 660 460 760 503 l 794 197 l 717 197 l 599 441 l 481 441 l 481 197 l 412 197 l 412 794 m 481 736 l 481 496 l 557 496 q 654 528 619 496 q 689 619 689 559 q 555 736 689 736 l 481 736 z "},"¯":{"ha":571,"x_min":-5,"x_max":576,"o":"m 576 1055 l -5 1055 l -5 1111 l 576 1111 l 576 1055 z "},"°":{"ha":595,"x_min":94,"x_max":500,"o":"m 153 949 q 182 977 153 949 q 297 1006 212 1006 q 441 949 382 1006 q 500 803 500 892 q 441 657 500 713 q 296 600 382 600 q 152 656 210 600 q 94 802 94 712 q 153 949 94 892 m 296 656 q 326 656 296 656 q 397 698 355 656 q 439 803 439 740 q 398 908 439 865 q 297 950 357 950 q 195 907 236 950 q 155 802 155 863 q 197 698 155 741 q 296 656 238 656 z "},"±":{"ha":555,"x_min":40,"x_max":515,"o":"m 306 518 l 515 518 l 515 463 l 306 463 l 306 170 l 250 170 l 250 463 l 40 463 l 40 518 l 250 518 l 250 812 l 306 812 l 306 518 m 515 0 l 40 0 l 40 56 l 515 56 l 515 0 z "},"²":{"ha":416,"x_min":33,"x_max":353,"o":"m 184 1006 q 301 964 259 1006 q 343 848 343 922 q 318 738 343 790 q 200 572 292 685 l 102 453 l 353 453 l 353 397 l 33 397 l 33 450 l 154 602 q 230 703 201 660 q 269 775 258 745 q 279 849 279 804 q 254 921 279 894 q 183 947 228 947 q 72 892 123 947 l 35 933 q 184 1006 99 1006 z "},"³":{"ha":416,"x_min":32,"x_max":357,"o":"m 32 946 q 177 1007 99 1007 q 296 966 255 1007 q 338 851 338 924 q 313 766 338 802 q 244 714 288 730 l 244 708 q 357 555 357 677 q 306 433 357 481 q 170 386 255 386 q 36 415 101 386 l 36 479 q 166 444 100 444 q 263 474 233 444 q 293 560 293 503 q 258 649 293 617 q 154 681 222 681 l 113 681 l 113 736 l 157 736 q 245 768 214 736 q 277 850 277 800 q 250 924 277 899 q 171 949 223 949 q 68 900 118 949 l 32 946 z "},"´":{"ha":764,"x_min":294,"x_max":509,"o":"m 509 1064 l 509 1053 q 429 945 484 1008 q 326 842 374 882 l 294 842 l 294 856 q 424 1064 380 967 l 509 1064 z "},"µ":{"ha":593,"x_min":98,"x_max":494,"o":"m 494 0 l 440 0 l 432 103 l 427 103 q 363 18 404 49 q 275 -14 321 -14 q 163 58 195 -14 l 157 58 q 163 -66 163 -23 l 163 -334 l 98 -334 l 98 736 l 163 736 l 163 239 q 269 46 163 46 q 392 114 353 46 q 431 332 431 182 l 431 736 l 494 736 l 494 0 z "},"¶":{"ha":656,"x_min":102,"x_max":521,"o":"m 521 -176 l 457 -176 l 457 990 l 358 990 l 358 -176 l 294 -176 l 294 379 q 248 367 274 367 q 137 450 172 367 q 102 707 102 533 q 145 968 102 882 q 281 1055 189 1055 l 521 1055 l 521 -176 z "},"·":{"ha":286,"x_min":90,"x_max":196,"o":"m 90 489 q 90 525 90 489 q 143 561 90 561 q 196 489 196 561 q 181 434 196 452 q 143 416 167 416 q 90 489 90 416 z "},"¸":{"ha":315,"x_min":40,"x_max":257,"o":"m 257 -197 q 215 -299 257 -264 q 98 -334 174 -334 q 40 -326 57 -334 l 40 -273 q 93 -281 62 -281 q 170 -259 144 -281 q 196 -198 196 -237 q 168 -138 196 -159 q 83 -109 139 -117 l 132 0 l 183 0 l 149 -78 q 257 -197 257 -104 z "},"¹":{"ha":416,"x_min":56,"x_max":269,"o":"m 269 397 l 211 397 l 211 814 q 215 929 211 872 q 175 893 193 908 q 89 831 157 879 l 56 875 l 216 991 l 269 991 l 269 397 z "},"º":{"ha":419,"x_min":47,"x_max":372,"o":"m 47 773 q 47 828 47 773 q 91 943 47 884 q 211 1003 134 1003 q 331 946 289 1003 q 372 776 372 889 q 331 605 372 663 q 210 546 290 546 q 89 604 130 546 q 47 773 47 663 m 210 953 q 109 775 109 953 q 133 639 109 682 q 211 596 157 596 q 288 638 264 596 q 311 774 311 680 q 287 911 311 869 q 210 953 263 953 z "},"»":{"ha":581,"x_min":56,"x_max":525,"o":"m 292 367 l 292 349 l 96 100 l 56 125 l 203 358 l 56 591 l 96 615 l 292 367 m 525 367 l 525 349 l 330 100 l 289 125 l 437 358 l 289 591 l 330 615 l 525 367 z "},"¼":{"ha":970,"x_min":35,"x_max":884,"o":"m 249 397 l 191 397 l 191 814 q 195 929 191 872 q 155 893 173 908 q 68 831 136 879 l 35 875 l 196 991 l 249 991 l 249 397 m 250 0 l 187 0 l 708 991 l 770 991 l 250 0 m 817 198 l 884 198 l 884 142 l 817 142 l 817 1 l 758 1 l 758 142 l 532 142 l 532 186 l 762 599 l 817 599 l 817 198 m 758 198 l 758 389 q 761 505 758 475 q 732 444 758 496 q 600 198 707 392 l 758 198 z "},"½":{"ha":970,"x_min":35,"x_max":905,"o":"m 249 397 l 191 397 l 191 814 q 195 929 191 872 q 155 893 173 908 q 68 831 136 879 l 35 875 l 196 991 l 249 991 l 249 397 m 233 0 l 171 0 l 692 991 l 754 991 l 233 0 m 737 609 q 854 567 812 609 q 896 452 896 525 q 870 341 896 393 q 753 176 845 288 l 654 56 l 905 56 l 905 1 l 586 1 l 586 54 l 707 205 q 783 306 754 263 q 822 378 811 349 q 832 452 832 408 q 806 524 832 497 q 736 551 781 551 q 625 495 676 551 l 587 536 q 737 609 652 609 z "},"¾":{"ha":970,"x_min":32,"x_max":911,"o":"m 32 946 q 177 1007 99 1007 q 296 966 255 1007 q 338 851 338 924 q 313 766 338 802 q 244 714 288 730 l 244 708 q 357 555 357 677 q 306 433 357 481 q 170 386 255 386 q 36 415 101 386 l 36 479 q 166 444 100 444 q 263 474 233 444 q 293 560 293 503 q 258 649 293 617 q 154 681 222 681 l 113 681 l 113 736 l 157 736 q 245 768 214 736 q 277 850 277 800 q 250 924 277 899 q 171 949 223 949 q 68 900 118 949 l 32 946 m 277 0 l 215 0 l 736 991 l 798 991 l 277 0 m 843 198 l 911 198 l 911 142 l 843 142 l 843 1 l 785 1 l 785 142 l 558 142 l 558 186 l 789 599 l 843 599 l 843 198 m 785 198 l 785 389 q 787 505 785 475 q 759 444 784 496 q 627 198 733 392 l 785 198 z "},"¿":{"ha":392,"x_min":32,"x_max":368,"o":"m 233 737 q 286 665 286 737 q 233 593 286 593 q 180 665 180 593 q 195 720 180 702 q 233 737 210 737 m 262 478 l 262 443 q 248 315 262 365 q 191 200 234 266 q 133 100 148 134 q 100 -53 100 27 q 131 -176 100 -134 q 215 -218 161 -218 q 278 -209 251 -218 q 336 -178 304 -199 l 368 -229 q 212 -279 298 -279 q 79 -222 126 -279 q 32 -65 32 -165 q 65 106 32 35 q 140 232 83 144 q 195 339 180 294 q 211 452 211 385 l 211 478 l 262 478 z "},"À":{"ha":551,"x_min":0,"x_max":551,"o":"m 99 1293 l 184 1293 q 239 1190 203 1248 q 313 1085 275 1133 l 313 1071 l 281 1071 q 181 1170 238 1105 q 99 1282 124 1235 l 99 1293 m 551 0 l 484 0 l 396 359 l 155 359 l 69 0 l 0 0 l 239 991 l 307 991 l 551 0 m 380 427 l 293 796 q 272 914 278 866 q 253 796 266 852 l 168 427 l 380 427 z "},"Á":{"ha":551,"x_min":0,"x_max":551,"o":"m 444 1293 l 444 1282 q 364 1174 419 1237 q 262 1071 309 1111 l 230 1071 l 230 1085 q 359 1293 315 1196 l 444 1293 m 551 0 l 484 0 l 396 359 l 155 359 l 69 0 l 0 0 l 239 991 l 307 991 l 551 0 m 380 427 l 293 796 q 272 914 278 866 q 253 796 266 852 l 168 427 l 380 427 z "},"Â":{"ha":551,"x_min":0,"x_max":551,"o":"m 433 1071 l 401 1071 q 339 1139 372 1099 l 273 1215 q 231 1166 260 1201 q 142 1071 176 1103 l 113 1071 l 113 1084 q 239 1293 195 1198 l 304 1293 q 357 1195 319 1257 q 433 1084 397 1131 l 433 1071 m 551 0 l 484 0 l 396 359 l 155 359 l 69 0 l 0 0 l 239 991 l 307 991 l 551 0 m 380 427 l 293 796 q 272 914 278 866 q 253 796 266 852 l 168 427 l 380 427 z "},"Ã":{"ha":551,"x_min":0,"x_max":551,"o":"m 357 1072 q 311 1086 336 1072 q 267 1115 286 1099 q 193 1158 215 1158 q 157 1135 172 1158 q 136 1071 142 1111 l 85 1071 q 122 1176 94 1139 q 198 1214 151 1214 q 244 1200 220 1214 q 288 1171 269 1187 q 362 1128 337 1128 q 416 1215 402 1128 l 466 1215 q 431 1109 460 1147 q 357 1072 403 1072 m 551 0 l 484 0 l 396 359 l 155 359 l 69 0 l 0 0 l 239 991 l 307 991 l 551 0 m 380 427 l 293 796 q 272 914 278 866 q 253 796 266 852 l 168 427 l 380 427 z "},"Ä":{"ha":551,"x_min":0,"x_max":551,"o":"m 130 1171 q 130 1184 130 1171 q 142 1212 130 1198 q 173 1226 155 1226 q 202 1212 191 1226 q 214 1171 214 1198 q 202 1128 214 1143 q 173 1114 191 1114 q 142 1128 155 1114 q 130 1171 130 1143 m 336 1171 q 336 1185 336 1171 q 349 1212 336 1198 q 379 1226 361 1226 q 409 1212 397 1226 q 421 1171 421 1198 q 409 1128 421 1143 q 379 1114 397 1114 q 349 1129 361 1114 q 336 1171 336 1143 m 551 0 l 484 0 l 396 359 l 155 359 l 69 0 l 0 0 l 239 991 l 307 991 l 551 0 m 380 427 l 293 796 q 272 914 278 866 q 253 796 266 852 l 168 427 l 380 427 z "},"Å":{"ha":551,"x_min":0,"x_max":551,"o":"m 230 954 q 163 997 187 965 q 140 1080 140 1028 q 176 1167 140 1133 q 273 1201 212 1201 q 372 1167 334 1201 q 410 1081 410 1133 q 385 996 410 1029 q 317 953 360 964 l 551 0 l 484 0 l 396 359 l 155 359 l 69 0 l 0 0 l 230 954 m 276 1154 q 257 1154 276 1154 q 215 1132 238 1154 q 193 1074 193 1109 q 214 1017 193 1038 q 273 996 235 996 q 334 1017 311 996 q 357 1075 357 1039 q 335 1132 357 1110 q 276 1154 314 1154 m 380 427 l 293 796 q 272 914 278 866 q 253 796 266 852 l 168 427 l 380 427 z "},"Æ":{"ha":782,"x_min":0,"x_max":715,"o":"m 715 926 l 422 926 l 422 551 l 699 551 l 699 488 l 422 488 l 422 64 l 715 64 l 715 0 l 355 0 l 355 359 l 174 359 l 71 0 l 0 0 l 294 991 l 715 991 l 715 926 m 355 427 l 355 925 l 336 925 l 192 427 l 355 427 z "},"Ç":{"ha":583,"x_min":75,"x_max":549,"o":"m 389 943 q 210 825 276 943 q 144 497 144 707 q 144 490 144 493 q 212 171 144 292 q 391 50 280 50 q 395 50 393 50 q 528 78 471 50 l 528 17 q 389 -14 475 -14 l 361 -78 q 469 -197 469 -104 q 428 -299 469 -264 q 311 -334 386 -334 q 252 -326 269 -334 l 252 -273 q 305 -281 275 -281 q 382 -259 357 -281 q 408 -198 408 -237 q 380 -138 408 -159 q 296 -109 351 -117 l 340 -9 q 146 147 218 13 q 75 490 75 281 q 75 498 75 494 q 160 872 75 736 q 390 1007 244 1007 q 549 965 480 1007 l 518 907 q 389 943 461 943 z "},"È":{"ha":534,"x_min":109,"x_max":468,"o":"m 135 1293 l 220 1293 q 275 1190 239 1248 q 349 1085 311 1133 l 349 1071 l 317 1071 q 217 1170 274 1105 q 135 1282 160 1235 l 135 1293 m 468 928 l 175 928 l 175 551 l 452 551 l 452 488 l 175 488 l 175 64 l 468 64 l 468 0 l 109 0 l 109 991 l 468 991 l 468 928 z "},"É":{"ha":534,"x_min":109,"x_max":468,"o":"m 434 1293 l 434 1282 q 354 1174 409 1237 q 252 1071 300 1111 l 220 1071 l 220 1085 q 349 1293 305 1196 l 434 1293 m 468 928 l 175 928 l 175 551 l 452 551 l 452 488 l 175 488 l 175 64 l 468 64 l 468 0 l 109 0 l 109 991 l 468 991 l 468 928 z "},"Ê":{"ha":534,"x_min":109,"x_max":468,"o":"m 442 1071 l 410 1071 q 349 1139 382 1099 l 283 1215 q 240 1166 270 1201 q 152 1071 185 1103 l 123 1071 l 123 1084 q 249 1293 205 1198 l 313 1293 q 366 1195 329 1257 q 442 1084 407 1131 l 442 1071 m 468 928 l 175 928 l 175 551 l 452 551 l 452 488 l 175 488 l 175 64 l 468 64 l 468 0 l 109 0 l 109 991 l 468 991 l 468 928 z "},"Ë":{"ha":534,"x_min":109,"x_max":468,"o":"m 137 1171 q 137 1184 137 1171 q 150 1212 137 1198 q 180 1226 162 1226 q 210 1212 198 1226 q 222 1171 222 1198 q 210 1128 222 1143 q 180 1114 198 1114 q 150 1128 162 1114 q 137 1171 137 1143 m 344 1171 q 344 1185 344 1171 q 356 1212 344 1198 q 386 1226 368 1226 q 416 1212 404 1226 q 429 1171 429 1198 q 416 1128 429 1143 q 386 1114 404 1114 q 356 1129 368 1114 q 344 1171 344 1143 m 468 928 l 175 928 l 175 551 l 452 551 l 452 488 l 175 488 l 175 64 l 468 64 l 468 0 l 109 0 l 109 991 l 468 991 l 468 928 z "},"Ì":{"ha":283,"x_min":-23,"x_max":191,"o":"m -23 1293 l 62 1293 q 117 1190 81 1248 q 191 1085 153 1133 l 191 1071 l 159 1071 q 59 1170 116 1105 q -23 1282 2 1235 l -23 1293 m 175 0 l 109 0 l 109 991 l 175 991 l 175 0 z "},"Í":{"ha":283,"x_min":104,"x_max":319,"o":"m 319 1293 l 319 1282 q 239 1174 294 1237 q 136 1071 184 1111 l 104 1071 l 104 1085 q 234 1293 190 1196 l 319 1293 m 175 0 l 109 0 l 109 991 l 175 991 l 175 0 z "},"Î":{"ha":283,"x_min":-18,"x_max":302,"o":"m 302 1071 l 270 1071 q 208 1139 241 1099 l 142 1215 q 100 1166 130 1201 q 12 1071 45 1103 l -18 1071 l -18 1084 q 109 1293 65 1198 l 173 1293 q 226 1195 189 1257 q 302 1084 267 1131 l 302 1071 m 175 0 l 109 0 l 109 991 l 175 991 l 175 0 z "},"Ï":{"ha":283,"x_min":-3,"x_max":288,"o":"m -3 1171 q -3 1184 -3 1171 q 9 1212 -3 1198 q 40 1226 22 1226 q 70 1212 58 1226 q 81 1171 81 1198 q 70 1128 81 1143 q 40 1114 58 1114 q 9 1128 22 1114 q -3 1171 -3 1143 m 203 1171 q 203 1185 203 1171 q 216 1212 203 1198 q 246 1226 228 1226 q 276 1212 264 1226 q 288 1171 288 1198 q 276 1128 288 1143 q 246 1114 264 1114 q 216 1129 228 1114 q 203 1171 203 1143 m 175 0 l 109 0 l 109 991 l 175 991 l 175 0 z "},"Ð":{"ha":674,"x_min":41,"x_max":600,"o":"m 109 991 l 289 991 q 521 868 442 991 q 600 505 600 744 q 285 0 600 0 l 109 0 l 109 475 l 41 475 l 41 536 l 109 536 l 109 991 m 175 930 l 175 536 l 328 536 l 328 475 l 175 475 l 175 61 l 281 61 q 530 501 530 61 q 468 821 530 711 q 286 930 406 930 l 175 930 z "},"Ñ":{"ha":739,"x_min":109,"x_max":631,"o":"m 465 1072 q 418 1086 443 1072 q 374 1115 393 1099 q 300 1158 322 1158 q 264 1135 279 1158 q 243 1071 249 1111 l 193 1071 q 229 1176 201 1139 q 305 1214 258 1214 q 352 1200 327 1214 q 395 1171 376 1187 q 469 1128 444 1128 q 523 1215 509 1128 l 573 1215 q 538 1109 567 1147 q 465 1072 510 1072 m 631 0 l 546 0 l 171 889 l 165 889 q 174 711 174 796 l 174 0 l 109 0 l 109 991 l 195 991 l 567 113 l 571 113 q 566 298 566 231 l 566 991 l 631 991 l 631 0 z "},"Ò":{"ha":722,"x_min":75,"x_max":647,"o":"m 192 1293 l 277 1293 q 332 1190 296 1248 q 406 1085 368 1133 l 406 1071 l 374 1071 q 274 1170 331 1105 q 192 1282 217 1235 l 192 1293 m 363 1006 q 574 873 502 1006 q 647 496 647 742 q 573 118 647 250 q 360 -14 500 -14 q 148 120 220 -14 q 75 498 75 253 q 363 1006 75 1006 m 578 496 q 578 607 578 496 q 524 830 578 718 q 362 942 469 942 q 199 829 254 942 q 144 496 144 716 q 200 163 144 277 q 361 50 255 50 q 523 162 468 50 q 578 496 578 275 z "},"Ó":{"ha":722,"x_min":75,"x_max":647,"o":"m 526 1293 l 526 1282 q 446 1174 500 1237 q 343 1071 391 1111 l 311 1071 l 311 1085 q 441 1293 397 1196 l 526 1293 m 363 1006 q 574 873 502 1006 q 647 496 647 742 q 573 118 647 250 q 360 -14 500 -14 q 148 120 220 -14 q 75 498 75 253 q 363 1006 75 1006 m 578 496 q 578 607 578 496 q 524 830 578 718 q 362 942 469 942 q 199 829 254 942 q 144 496 144 716 q 200 163 144 277 q 361 50 255 50 q 523 162 468 50 q 578 496 578 275 z "},"Ô":{"ha":722,"x_min":75,"x_max":647,"o":"m 520 1071 l 488 1071 q 427 1139 460 1099 l 361 1215 q 318 1166 348 1201 q 230 1071 263 1103 l 201 1071 l 201 1084 q 327 1293 283 1198 l 391 1293 q 444 1195 407 1257 q 520 1084 485 1131 l 520 1071 m 363 1006 q 574 873 502 1006 q 647 496 647 742 q 573 118 647 250 q 360 -14 500 -14 q 148 120 220 -14 q 75 498 75 253 q 363 1006 75 1006 m 578 496 q 578 607 578 496 q 524 830 578 718 q 362 942 469 942 q 199 829 254 942 q 144 496 144 716 q 200 163 144 277 q 361 50 255 50 q 523 162 468 50 q 578 496 578 275 z "},"Õ":{"ha":722,"x_min":75,"x_max":647,"o":"m 449 1072 q 402 1086 427 1072 q 358 1115 377 1099 q 285 1158 307 1158 q 248 1135 263 1158 q 227 1071 233 1111 l 177 1071 q 214 1176 185 1139 q 290 1214 242 1214 q 336 1200 311 1214 q 379 1171 361 1187 q 454 1128 429 1128 q 507 1215 494 1128 l 557 1215 q 523 1109 551 1147 q 449 1072 494 1072 m 363 1006 q 574 873 502 1006 q 647 496 647 742 q 573 118 647 250 q 360 -14 500 -14 q 148 120 220 -14 q 75 498 75 253 q 363 1006 75 1006 m 578 496 q 578 607 578 496 q 524 830 578 718 q 362 942 469 942 q 199 829 254 942 q 144 496 144 716 q 200 163 144 277 q 361 50 255 50 q 523 162 468 50 q 578 496 578 275 z "},"Ö":{"ha":722,"x_min":75,"x_max":647,"o":"m 221 1171 q 221 1184 221 1171 q 234 1212 221 1198 q 264 1226 246 1226 q 294 1212 282 1226 q 306 1171 306 1198 q 294 1128 306 1143 q 264 1114 282 1114 q 234 1128 246 1114 q 221 1171 221 1143 m 428 1171 q 428 1185 428 1171 q 440 1212 428 1198 q 470 1226 452 1226 q 500 1212 488 1226 q 513 1171 513 1198 q 500 1128 513 1143 q 470 1114 488 1114 q 440 1129 452 1114 q 428 1171 428 1143 m 363 1006 q 574 873 502 1006 q 647 496 647 742 q 573 118 647 250 q 360 -14 500 -14 q 148 120 220 -14 q 75 498 75 253 q 363 1006 75 1006 m 578 496 q 578 607 578 496 q 524 830 578 718 q 362 942 469 942 q 199 829 254 942 q 144 496 144 716 q 200 163 144 277 q 361 50 255 50 q 523 162 468 50 q 578 496 578 275 z "},"×":{"ha":555,"x_min":40,"x_max":515,"o":"m 515 689 l 317 490 l 511 294 l 472 256 l 277 452 l 79 253 l 40 293 l 237 490 l 41 686 l 81 725 l 277 529 l 475 728 l 515 689 z "},"Ø":{"ha":722,"x_min":65,"x_max":667,"o":"m 583 856 q 647 489 647 728 q 573 118 647 250 q 361 -14 500 -14 q 184 64 254 -14 l 121 -64 l 65 -39 l 146 122 q 75 498 75 254 q 363 1006 75 1006 q 546 917 473 1006 l 611 1046 l 667 1018 l 583 856 m 363 942 q 199 829 254 942 q 144 511 144 716 q 184 199 144 307 l 513 848 q 363 942 458 942 m 361 50 q 523 162 468 50 q 578 497 578 275 q 545 777 578 669 l 218 129 q 361 50 271 50 z "},"Ù":{"ha":686,"x_min":100,"x_max":586,"o":"m 188 1293 l 273 1293 q 328 1190 292 1248 q 402 1085 364 1133 l 402 1071 l 370 1071 q 270 1170 327 1105 q 188 1282 213 1235 l 188 1293 m 586 991 l 586 322 q 346 -14 586 -14 q 163 73 226 -14 q 100 322 100 159 l 100 991 l 167 991 l 167 314 q 213 118 167 186 q 346 50 260 50 q 475 118 431 50 q 519 317 519 185 l 519 991 l 586 991 z "},"Ú":{"ha":686,"x_min":100,"x_max":586,"o":"m 501 1293 l 501 1282 q 421 1174 476 1237 q 319 1071 366 1111 l 287 1071 l 287 1085 q 416 1293 372 1196 l 501 1293 m 586 991 l 586 322 q 346 -14 586 -14 q 163 73 226 -14 q 100 322 100 159 l 100 991 l 167 991 l 167 314 q 213 118 167 186 q 346 50 260 50 q 475 118 431 50 q 519 317 519 185 l 519 991 l 586 991 z "},"Û":{"ha":686,"x_min":100,"x_max":586,"o":"m 503 1071 l 471 1071 q 410 1139 443 1099 l 344 1215 q 301 1166 331 1201 q 213 1071 246 1103 l 184 1071 l 184 1084 q 310 1293 266 1198 l 374 1293 q 427 1195 390 1257 q 503 1084 468 1131 l 503 1071 m 586 991 l 586 322 q 346 -14 586 -14 q 163 73 226 -14 q 100 322 100 159 l 100 991 l 167 991 l 167 314 q 213 118 167 186 q 346 50 260 50 q 475 118 431 50 q 519 317 519 185 l 519 991 l 586 991 z "},"Ü":{"ha":686,"x_min":100,"x_max":586,"o":"m 198 1171 q 198 1184 198 1171 q 211 1212 198 1198 q 241 1226 223 1226 q 271 1212 259 1226 q 283 1171 283 1198 q 271 1128 283 1143 q 241 1114 259 1114 q 211 1128 223 1114 q 198 1171 198 1143 m 405 1171 q 405 1185 405 1171 q 417 1212 405 1198 q 447 1226 429 1226 q 477 1212 465 1226 q 490 1171 490 1198 q 477 1128 490 1143 q 447 1114 465 1114 q 417 1129 429 1114 q 405 1171 405 1143 m 586 991 l 586 322 q 346 -14 586 -14 q 163 73 226 -14 q 100 322 100 159 l 100 991 l 167 991 l 167 314 q 213 118 167 186 q 346 50 260 50 q 475 118 431 50 q 519 317 519 185 l 519 991 l 586 991 z "},"Ý":{"ha":465,"x_min":0,"x_max":465,"o":"m 398 1293 l 398 1282 q 318 1174 373 1237 q 216 1071 263 1111 l 184 1071 l 184 1085 q 313 1293 269 1196 l 398 1293 m 265 0 l 199 0 l 199 387 l 0 991 l 71 991 l 233 479 l 395 991 l 465 991 l 265 387 l 265 0 z "},"Þ":{"ha":570,"x_min":109,"x_max":524,"o":"m 175 808 l 244 808 q 456 741 389 808 q 524 532 524 674 q 248 227 524 227 l 175 227 l 175 0 l 109 0 l 109 991 l 175 991 l 175 808 m 175 743 l 175 290 l 241 290 q 406 342 356 290 q 456 518 456 395 q 407 692 456 641 q 249 743 359 743 l 175 743 z "},"ß":{"ha":558,"x_min":98,"x_max":510,"o":"m 98 0 l 98 817 q 148 998 98 933 q 281 1063 197 1063 q 447 875 447 1063 q 385 714 447 793 q 323 585 323 634 q 339 515 323 546 q 399 429 355 484 l 439 382 q 510 200 510 300 q 462 43 510 100 q 335 -14 414 -14 q 215 22 257 -14 l 215 90 q 272 59 245 70 q 334 47 298 47 q 415 87 387 47 q 444 197 444 126 q 429 276 444 238 q 359 379 414 313 q 283 492 305 444 q 261 579 261 539 q 275 650 261 619 q 321 722 288 680 q 382 878 382 798 q 282 1002 382 1002 q 194 956 224 1002 q 163 823 163 910 l 163 0 l 98 0 z "},"à":{"ha":532,"x_min":53,"x_max":436,"o":"m 111 1064 l 195 1064 q 251 961 215 1019 q 325 856 287 903 l 325 842 l 292 842 q 193 941 250 876 q 111 1053 136 1006 l 111 1064 m 104 703 q 269 750 180 750 q 396 692 357 750 q 436 501 436 635 l 436 0 l 383 0 l 375 103 l 372 103 q 212 -14 319 -14 q 96 43 140 -14 q 53 202 53 101 q 116 364 53 302 q 293 431 179 425 l 372 435 l 372 496 q 346 646 372 600 q 259 693 320 693 q 132 652 198 693 l 104 703 m 121 196 q 149 80 121 118 q 227 41 176 41 q 334 110 296 41 q 372 302 372 178 l 372 379 l 296 375 q 121 196 121 366 z "},"á":{"ha":532,"x_min":53,"x_max":436,"o":"m 411 1064 l 411 1053 q 331 945 386 1008 q 229 842 277 882 l 197 842 l 197 856 q 326 1064 282 967 l 411 1064 m 104 703 q 269 750 180 750 q 396 692 357 750 q 436 501 436 635 l 436 0 l 383 0 l 375 103 l 372 103 q 212 -14 319 -14 q 96 43 140 -14 q 53 202 53 101 q 116 364 53 302 q 293 431 179 425 l 372 435 l 372 496 q 346 646 372 600 q 259 693 320 693 q 132 652 198 693 l 104 703 m 121 196 q 149 80 121 118 q 227 41 176 41 q 334 110 296 41 q 372 302 372 178 l 372 379 l 296 375 q 121 196 121 366 z "},"â":{"ha":532,"x_min":53,"x_max":436,"o":"m 421 843 l 389 843 q 328 911 361 871 l 262 987 q 219 939 249 973 q 131 843 164 875 l 102 843 l 102 856 q 228 1065 184 970 l 292 1065 q 345 967 308 1029 q 421 856 386 903 l 421 843 m 104 703 q 269 750 180 750 q 396 692 357 750 q 436 501 436 635 l 436 0 l 383 0 l 375 103 l 372 103 q 212 -14 319 -14 q 96 43 140 -14 q 53 202 53 101 q 116 364 53 302 q 293 431 179 425 l 372 435 l 372 496 q 346 646 372 600 q 259 693 320 693 q 132 652 198 693 l 104 703 m 121 196 q 149 80 121 118 q 227 41 176 41 q 334 110 296 41 q 372 302 372 178 l 372 379 l 296 375 q 121 196 121 366 z "},"ã":{"ha":532,"x_min":53,"x_max":459,"o":"m 351 843 q 304 857 329 843 q 260 886 279 870 q 186 929 208 929 q 150 905 165 929 q 129 842 135 882 l 79 842 q 115 947 87 909 q 191 985 144 985 q 238 971 213 985 q 281 941 262 958 q 355 899 330 899 q 409 986 395 899 l 459 986 q 425 880 453 918 q 351 843 396 843 m 104 703 q 269 750 180 750 q 396 692 357 750 q 436 501 436 635 l 436 0 l 383 0 l 375 103 l 372 103 q 212 -14 319 -14 q 96 43 140 -14 q 53 202 53 101 q 116 364 53 302 q 293 431 179 425 l 372 435 l 372 496 q 346 646 372 600 q 259 693 320 693 q 132 652 198 693 l 104 703 m 121 196 q 149 80 121 118 q 227 41 176 41 q 334 110 296 41 q 372 302 372 178 l 372 379 l 296 375 q 121 196 121 366 z "},"ä":{"ha":532,"x_min":53,"x_max":436,"o":"m 112 941 q 112 955 112 941 q 124 983 112 969 q 155 997 137 997 q 185 983 173 997 q 197 941 197 969 q 185 899 197 913 q 155 885 173 885 q 124 899 137 885 q 112 941 112 913 m 319 942 q 319 955 319 942 q 331 983 319 969 q 361 997 343 997 q 391 983 379 997 q 404 941 404 969 q 391 899 404 913 q 361 885 379 885 q 331 900 343 885 q 319 942 319 914 m 104 703 q 269 750 180 750 q 396 692 357 750 q 436 501 436 635 l 436 0 l 383 0 l 375 103 l 372 103 q 212 -14 319 -14 q 96 43 140 -14 q 53 202 53 101 q 116 364 53 302 q 293 431 179 425 l 372 435 l 372 496 q 346 646 372 600 q 259 693 320 693 q 132 652 198 693 l 104 703 m 121 196 q 149 80 121 118 q 227 41 176 41 q 334 110 296 41 q 372 302 372 178 l 372 379 l 296 375 q 121 196 121 366 z "},"å":{"ha":532,"x_min":53,"x_max":436,"o":"m 125 975 q 125 1004 125 975 q 162 1067 125 1033 q 259 1101 198 1101 q 357 1067 319 1101 q 395 976 395 1034 q 359 883 395 918 q 260 848 322 848 q 161 882 197 848 q 125 975 125 916 m 342 975 q 342 993 342 975 q 321 1032 342 1010 q 262 1054 300 1054 q 201 1032 224 1054 q 178 974 178 1010 q 199 917 178 939 q 259 896 220 896 q 320 918 297 896 q 342 975 342 939 m 104 703 q 269 750 180 750 q 396 692 357 750 q 436 501 436 635 l 436 0 l 383 0 l 375 103 l 372 103 q 212 -14 319 -14 q 96 43 140 -14 q 53 202 53 101 q 116 364 53 302 q 293 431 179 425 l 372 435 l 372 496 q 346 646 372 600 q 259 693 320 693 q 132 652 198 693 l 104 703 m 121 196 q 149 80 121 118 q 227 41 176 41 q 334 110 296 41 q 372 302 372 178 l 372 379 l 296 375 q 121 196 121 366 z "},"æ":{"ha":854,"x_min":53,"x_max":789,"o":"m 264 750 q 419 633 385 750 q 589 750 476 750 q 735 664 681 750 q 789 428 789 577 l 789 368 l 440 368 q 615 45 446 45 q 765 90 692 45 l 765 31 q 620 -14 696 -14 q 488 30 543 -14 q 407 150 433 73 q 329 25 376 64 q 210 -14 281 -14 q 96 43 140 -14 q 53 202 53 101 q 116 364 53 302 q 293 431 179 425 l 372 435 l 372 496 q 345 644 372 595 q 258 693 318 693 q 132 652 198 693 l 104 703 q 264 750 181 750 m 725 427 l 725 435 q 688 621 725 552 q 587 690 650 690 q 441 427 456 690 l 725 427 m 296 375 q 163 328 205 370 q 121 201 121 285 q 149 80 121 118 q 227 41 176 41 q 334 110 296 41 q 372 302 372 178 l 372 379 l 296 375 z "},"ç":{"ha":431,"x_min":65,"x_max":403,"o":"m 294 689 q 132 367 132 689 q 294 45 132 45 q 399 66 342 45 l 399 12 q 345 -6 378 1 q 288 -14 313 -14 l 286 -14 l 257 -78 q 366 -197 366 -104 q 324 -299 366 -264 q 207 -334 282 -334 q 149 -326 165 -334 l 149 -273 q 201 -281 171 -281 q 279 -259 253 -281 q 304 -198 304 -237 q 276 -138 304 -159 q 192 -109 248 -117 l 237 -8 q 65 364 65 34 q 122 652 65 553 q 289 750 179 750 q 403 725 357 750 l 378 668 q 294 689 333 689 z "},"è":{"ha":545,"x_min":65,"x_max":479,"o":"m 134 1064 l 218 1064 q 274 961 238 1019 q 348 856 310 903 l 348 842 l 315 842 q 216 941 273 876 q 134 1053 159 1006 l 134 1064 m 307 -14 q 127 85 191 -14 q 65 369 65 186 q 121 651 65 551 q 282 750 177 750 q 427 663 374 750 q 479 428 479 576 l 479 368 l 131 368 q 310 47 134 47 q 456 93 380 47 l 456 31 q 307 -14 385 -14 m 415 427 q 378 620 415 548 q 278 692 341 692 q 132 427 145 692 l 415 427 z "},"é":{"ha":545,"x_min":65,"x_max":479,"o":"m 447 1064 l 447 1053 q 367 945 422 1008 q 264 842 312 882 l 233 842 l 233 856 q 362 1064 318 967 l 447 1064 m 307 -14 q 127 85 191 -14 q 65 369 65 186 q 121 651 65 551 q 282 750 177 750 q 427 663 374 750 q 479 428 479 576 l 479 368 l 131 368 q 310 47 134 47 q 456 93 380 47 l 456 31 q 307 -14 385 -14 m 415 427 q 378 620 415 548 q 278 692 341 692 q 132 427 145 692 l 415 427 z "},"ê":{"ha":545,"x_min":65,"x_max":479,"o":"m 439 842 l 408 842 q 346 910 379 870 l 280 986 q 237 937 267 972 q 149 842 182 873 l 120 842 l 120 854 q 246 1064 202 968 l 311 1064 q 363 966 326 1027 q 439 854 404 901 l 439 842 m 307 -14 q 127 85 191 -14 q 65 369 65 186 q 121 651 65 551 q 282 750 177 750 q 427 663 374 750 q 479 428 479 576 l 479 368 l 131 368 q 310 47 134 47 q 456 93 380 47 l 456 31 q 307 -14 385 -14 m 415 427 q 378 620 415 548 q 278 692 341 692 q 132 427 145 692 l 415 427 z "},"ë":{"ha":545,"x_min":65,"x_max":479,"o":"m 132 941 q 132 955 132 941 q 145 983 132 969 q 175 997 157 997 q 205 983 193 997 q 217 941 217 969 q 205 899 217 913 q 175 885 193 885 q 145 899 157 885 q 132 941 132 913 m 339 942 q 339 955 339 942 q 351 983 339 969 q 381 997 363 997 q 412 983 399 997 q 424 941 424 969 q 412 899 424 913 q 381 885 399 885 q 351 900 363 885 q 339 942 339 914 m 307 -14 q 127 85 191 -14 q 65 369 65 186 q 121 651 65 551 q 282 750 177 750 q 427 663 374 750 q 479 428 479 576 l 479 368 l 131 368 q 310 47 134 47 q 456 93 380 47 l 456 31 q 307 -14 385 -14 m 415 427 q 378 620 415 548 q 278 692 341 692 q 132 427 145 692 l 415 427 z "},"ì":{"ha":261,"x_min":-22,"x_max":193,"o":"m -22 1064 l 63 1064 q 119 961 83 1019 q 193 856 155 903 l 193 842 l 160 842 q 60 941 117 876 q -22 1053 3 1006 l -22 1064 m 163 0 l 98 0 l 98 736 l 163 736 l 163 0 z "},"í":{"ha":261,"x_min":77,"x_max":291,"o":"m 291 1064 l 291 1053 q 211 945 266 1008 q 109 842 156 882 l 77 842 l 77 856 q 206 1064 162 967 l 291 1064 m 163 0 l 98 0 l 98 736 l 163 736 l 163 0 z "},"î":{"ha":261,"x_min":-28,"x_max":291,"o":"m 291 842 l 259 842 q 197 910 231 870 l 132 986 q 89 937 119 972 q 1 842 34 873 l -28 842 l -28 854 q 98 1064 54 968 l 162 1064 q 215 966 178 1027 q 291 854 256 901 l 291 842 m 163 0 l 98 0 l 98 736 l 163 736 l 163 0 z "},"ï":{"ha":261,"x_min":-14,"x_max":278,"o":"m -14 941 q -14 955 -14 941 q -1 983 -14 969 q 30 997 12 997 q 59 983 47 997 q 71 941 71 969 q 59 899 71 913 q 30 885 47 885 q -1 899 12 885 q -14 941 -14 913 m 193 942 q 193 955 193 942 q 205 983 193 969 q 236 997 218 997 q 266 983 254 997 q 278 941 278 969 q 266 899 278 913 q 236 885 254 885 q 205 900 218 885 q 193 942 193 914 m 163 0 l 98 0 l 98 736 l 163 736 l 163 0 z "},"ð":{"ha":581,"x_min":64,"x_max":517,"o":"m 517 349 q 288 -14 517 -14 q 125 78 187 -14 q 64 323 64 170 q 118 562 64 477 q 276 647 173 647 q 429 564 380 647 l 435 564 q 273 909 399 763 l 155 840 l 129 885 l 237 949 q 161 1014 201 983 l 193 1055 q 289 979 244 1023 l 416 1054 l 443 1010 l 325 940 q 517 349 517 720 m 293 586 q 171 516 213 586 q 129 318 129 447 q 173 117 129 189 q 295 45 216 45 q 413 114 374 45 q 452 328 452 184 q 408 513 452 440 q 293 586 363 586 z "},"ñ":{"ha":590,"x_min":98,"x_max":494,"o":"m 384 843 q 337 857 362 843 q 293 886 312 870 q 220 929 241 929 q 183 905 198 929 q 162 842 168 882 l 112 842 q 149 947 120 909 q 224 985 177 985 q 271 971 246 985 q 314 941 296 958 q 389 899 363 899 q 442 986 429 899 l 492 986 q 458 880 486 918 q 384 843 429 843 m 323 750 q 452 692 410 750 q 494 509 494 634 l 494 0 l 431 0 l 431 507 q 322 690 431 690 q 201 622 239 690 q 163 404 163 553 l 163 0 l 98 0 l 98 736 l 153 736 l 158 633 l 164 633 q 230 719 186 688 q 323 750 273 750 z "},"ò":{"ha":576,"x_min":64,"x_max":513,"o":"m 140 1064 l 224 1064 q 280 961 244 1019 q 354 856 316 903 l 354 842 l 321 842 q 222 941 279 876 q 140 1053 165 1006 l 140 1064 m 289 750 q 454 650 395 750 q 513 367 513 551 q 454 85 513 184 q 287 -14 395 -14 q 121 85 178 -14 q 64 370 64 184 q 289 750 64 750 m 288 689 q 169 610 206 689 q 131 370 131 531 q 288 47 131 47 q 446 368 446 47 q 288 689 446 689 z "},"ó":{"ha":576,"x_min":64,"x_max":513,"o":"m 446 1064 l 446 1053 q 366 945 420 1008 q 263 842 311 882 l 231 842 l 231 856 q 361 1064 317 967 l 446 1064 m 289 750 q 454 650 395 750 q 513 367 513 551 q 454 85 513 184 q 287 -14 395 -14 q 121 85 178 -14 q 64 370 64 184 q 289 750 64 750 m 288 689 q 169 610 206 689 q 131 370 131 531 q 288 47 131 47 q 446 368 446 47 q 288 689 446 689 z "},"ô":{"ha":576,"x_min":64,"x_max":513,"o":"m 449 842 l 417 842 q 355 910 389 870 l 290 986 q 247 937 277 972 q 159 842 192 873 l 130 842 l 130 854 q 256 1064 212 968 l 320 1064 q 373 966 336 1027 q 449 854 414 901 l 449 842 m 289 750 q 454 650 395 750 q 513 367 513 551 q 454 85 513 184 q 287 -14 395 -14 q 121 85 178 -14 q 64 370 64 184 q 289 750 64 750 m 288 689 q 169 610 206 689 q 131 370 131 531 q 288 47 131 47 q 446 368 446 47 q 288 689 446 689 z "},"õ":{"ha":576,"x_min":64,"x_max":513,"o":"m 370 843 q 323 857 348 843 q 279 886 298 870 q 205 929 227 929 q 169 905 184 929 q 148 842 154 882 l 98 842 q 134 947 106 909 q 210 985 163 985 q 257 971 232 985 q 300 941 281 958 q 374 899 349 899 q 428 986 414 899 l 478 986 q 444 880 472 918 q 370 843 415 843 m 289 750 q 454 650 395 750 q 513 367 513 551 q 454 85 513 184 q 287 -14 395 -14 q 121 85 178 -14 q 64 370 64 184 q 289 750 64 750 m 288 689 q 169 610 206 689 q 131 370 131 531 q 288 47 131 47 q 446 368 446 47 q 288 689 446 689 z "},"ö":{"ha":576,"x_min":64,"x_max":513,"o":"m 142 941 q 142 955 142 941 q 155 983 142 969 q 185 997 168 997 q 215 983 203 997 q 227 941 227 969 q 215 899 227 913 q 185 885 203 885 q 155 899 168 885 q 142 941 142 913 m 349 942 q 349 955 349 942 q 361 983 349 969 q 392 997 374 997 q 422 983 410 997 q 434 941 434 969 q 422 899 434 913 q 392 885 410 885 q 361 900 374 885 q 349 942 349 914 m 289 750 q 454 650 395 750 q 513 367 513 551 q 454 85 513 184 q 287 -14 395 -14 q 121 85 178 -14 q 64 370 64 184 q 289 750 64 750 m 288 689 q 169 610 206 689 q 131 370 131 531 q 288 47 131 47 q 446 368 446 47 q 288 689 446 689 z "},"÷":{"ha":555,"x_min":40,"x_max":515,"o":"m 278 654 q 225 727 225 654 q 278 799 225 799 q 330 726 330 799 q 316 672 330 690 q 278 654 302 654 m 515 463 l 40 463 l 40 518 l 515 518 l 515 463 m 278 180 q 225 253 225 180 q 278 325 225 325 q 330 253 330 325 q 316 198 330 216 q 278 180 302 180 z "},"ø":{"ha":576,"x_min":46,"x_max":530,"o":"m 461 637 q 513 360 513 537 q 454 85 513 184 q 286 -14 395 -14 q 161 33 209 -14 l 97 -97 l 46 -69 l 122 85 q 64 370 64 184 q 289 750 64 750 q 422 692 368 750 l 479 807 l 530 779 l 461 637 m 288 689 q 169 610 206 689 q 131 382 131 531 q 157 157 131 234 l 392 631 q 288 689 354 689 m 288 47 q 446 370 446 47 q 424 562 446 491 l 192 93 q 288 47 227 47 z "},"ù":{"ha":590,"x_min":96,"x_max":492,"o":"m 132 1064 l 217 1064 q 273 961 237 1019 q 347 856 309 903 l 347 842 l 314 842 q 214 941 271 876 q 132 1053 157 1006 l 132 1064 m 492 0 l 437 0 l 429 103 l 424 103 q 358 17 400 47 q 267 -14 317 -14 q 136 50 178 -14 q 96 256 96 113 l 96 736 l 160 736 l 160 256 q 186 97 160 147 q 267 46 212 46 q 389 114 351 46 q 428 332 428 182 l 428 736 l 492 736 l 492 0 z "},"ú":{"ha":590,"x_min":96,"x_max":492,"o":"m 452 1064 l 452 1053 q 372 945 427 1008 q 270 842 317 882 l 238 842 l 238 856 q 368 1064 323 967 l 452 1064 m 492 0 l 437 0 l 429 103 l 424 103 q 358 17 400 47 q 267 -14 317 -14 q 136 50 178 -14 q 96 256 96 113 l 96 736 l 160 736 l 160 256 q 186 97 160 147 q 267 46 212 46 q 389 114 351 46 q 428 332 428 182 l 428 736 l 492 736 l 492 0 z "},"û":{"ha":590,"x_min":96,"x_max":492,"o":"m 449 842 l 417 842 q 355 910 389 870 l 290 986 q 247 937 277 972 q 159 842 192 873 l 130 842 l 130 854 q 256 1064 212 968 l 320 1064 q 373 966 336 1027 q 449 854 414 901 l 449 842 m 492 0 l 437 0 l 429 103 l 424 103 q 358 17 400 47 q 267 -14 317 -14 q 136 50 178 -14 q 96 256 96 113 l 96 736 l 160 736 l 160 256 q 186 97 160 147 q 267 46 212 46 q 389 114 351 46 q 428 332 428 182 l 428 736 l 492 736 l 492 0 z "},"ü":{"ha":590,"x_min":96,"x_max":492,"o":"m 148 941 q 148 955 148 941 q 160 983 148 969 q 191 997 173 997 q 221 983 209 997 q 233 941 233 969 q 221 899 233 913 q 191 885 209 885 q 160 899 173 885 q 148 941 148 913 m 355 942 q 355 955 355 942 q 367 983 355 969 q 397 997 379 997 q 427 983 415 997 q 439 941 439 969 q 427 899 439 913 q 397 885 415 885 q 367 900 379 885 q 355 942 355 914 m 492 0 l 437 0 l 429 103 l 424 103 q 358 17 400 47 q 267 -14 317 -14 q 136 50 178 -14 q 96 256 96 113 l 96 736 l 160 736 l 160 256 q 186 97 160 147 q 267 46 212 46 q 389 114 351 46 q 428 332 428 182 l 428 736 l 492 736 l 492 0 z "},"ý":{"ha":443,"x_min":-1,"x_max":436,"o":"m 386 1064 l 386 1053 q 306 945 361 1008 q 203 842 251 882 l 172 842 l 172 856 q 301 1064 257 967 l 386 1064 m 57 -334 q -1 -322 32 -334 l -1 -264 q 52 -273 27 -273 q 115 -239 92 -273 q 158 -126 139 -205 l 191 1 l 7 736 l 72 736 l 183 277 q 221 90 203 189 l 227 90 q 262 278 241 187 l 371 736 l 436 736 l 221 -139 q 158 -286 197 -239 q 57 -334 119 -334 z "},"þ":{"ha":606,"x_min":98,"x_max":542,"o":"m 326 750 q 542 370 542 750 q 489 86 542 185 q 335 -14 435 -14 q 232 18 279 -14 q 163 102 186 49 l 158 102 l 165 21 l 165 -334 l 98 -334 l 98 1055 l 163 1055 l 163 727 l 160 635 l 163 635 q 232 720 189 690 q 326 750 275 750 m 163 395 l 163 374 q 203 125 163 205 q 325 45 243 45 q 436 121 399 45 q 473 367 473 197 q 438 613 473 537 q 321 689 402 689 q 202 617 241 689 q 163 395 163 546 z "},"ÿ":{"ha":443,"x_min":-1,"x_max":436,"o":"m 79 941 q 79 955 79 941 q 91 983 79 969 q 122 997 104 997 q 152 983 140 997 q 163 941 163 969 q 152 899 163 913 q 122 885 140 885 q 91 899 104 885 q 79 941 79 913 m 286 942 q 286 955 286 942 q 298 983 286 969 q 328 997 310 997 q 358 983 346 997 q 370 941 370 969 q 358 899 370 913 q 328 885 346 885 q 298 900 310 885 q 286 942 286 914 m 57 -334 q -1 -322 32 -334 l -1 -264 q 52 -273 27 -273 q 115 -239 92 -273 q 158 -126 139 -205 l 191 1 l 7 736 l 72 736 l 183 277 q 221 90 203 189 l 227 90 q 262 278 241 187 l 371 736 l 436 736 l 221 -139 q 158 -286 197 -239 q 57 -334 119 -334 z "},"ı":{"ha":261,"x_min":98,"x_max":163,"o":"m 163 0 l 98 0 l 98 736 l 163 736 l 163 0 z "},"Œ":{"ha":836,"x_min":75,"x_max":770,"o":"m 770 991 l 770 928 l 476 928 l 476 551 l 753 551 l 753 488 l 476 488 l 476 64 l 770 64 l 770 0 l 482 0 l 397 -4 q 75 498 75 -4 q 159 870 75 744 q 403 996 242 996 l 481 991 l 770 991 m 410 60 l 410 932 q 209 830 273 932 q 146 498 146 728 q 208 163 146 267 q 410 60 271 60 z "},"œ":{"ha":924,"x_min":64,"x_max":859,"o":"m 686 -14 q 478 143 538 -14 q 286 -14 425 -14 q 121 85 178 -14 q 64 370 64 184 q 289 750 64 750 q 476 596 420 750 q 661 750 530 750 q 806 663 753 750 q 859 428 859 576 l 859 368 l 510 368 q 689 45 513 45 q 835 90 759 45 l 835 31 q 686 -14 764 -14 m 794 427 l 794 435 q 757 621 794 551 q 657 690 720 690 q 511 427 525 690 l 794 427 m 444 353 l 444 370 q 288 689 444 689 q 169 610 206 689 q 131 370 131 531 q 288 45 131 45 q 444 353 444 45 z "},"Š":{"ha":549,"x_min":58,"x_max":489,"o":"m 458 1293 l 458 1280 q 382 1170 420 1232 q 329 1071 345 1107 l 264 1071 q 138 1280 217 1172 l 138 1293 l 168 1293 q 243 1212 201 1261 q 298 1149 286 1163 l 332 1186 q 426 1293 407 1276 l 458 1293 m 249 50 q 374 108 325 50 q 422 251 422 165 q 388 385 422 336 q 256 481 353 433 q 141 556 178 520 q 85 640 103 592 q 66 755 66 688 q 66 764 66 760 q 133 936 66 866 q 294 1006 199 1006 q 297 1006 295 1006 q 476 965 401 1006 l 450 901 q 299 940 375 940 q 178 890 224 940 q 132 757 132 840 q 166 629 132 674 q 296 533 199 583 q 443 419 396 484 q 489 260 489 353 q 421 62 489 138 q 249 -14 353 -14 q 58 21 130 -14 l 58 93 q 148 61 96 73 q 249 50 199 50 z "},"š":{"ha":437,"x_min":50,"x_max":389,"o":"m 388 1064 l 388 1051 q 313 940 350 1002 q 259 842 275 878 l 195 842 q 68 1051 146 943 l 68 1064 l 98 1064 q 173 983 131 1032 q 229 920 216 934 l 262 957 q 356 1064 337 1047 l 388 1064 m 201 47 q 291 84 258 47 q 323 184 323 121 q 299 267 323 233 q 204 347 275 302 q 107 420 134 392 q 65 483 80 448 q 50 567 50 517 q 104 698 50 646 q 243 750 158 750 q 389 708 328 750 l 355 652 q 240 689 300 689 q 146 655 180 689 q 113 570 113 622 q 136 485 113 518 q 233 406 159 452 q 333 330 306 358 q 387 181 387 271 q 338 39 387 91 q 197 -14 289 -14 q 50 28 105 -14 l 50 103 q 117 63 75 78 q 201 47 158 47 z "},"Ÿ":{"ha":465,"x_min":0,"x_max":465,"o":"m 88 1171 q 88 1184 88 1171 q 101 1212 88 1198 q 131 1226 113 1226 q 161 1212 149 1226 q 173 1171 173 1198 q 161 1128 173 1143 q 131 1114 149 1114 q 101 1128 113 1114 q 88 1171 88 1143 m 295 1171 q 295 1185 295 1171 q 307 1212 295 1198 q 337 1226 319 1226 q 368 1212 355 1226 q 380 1171 380 1198 q 368 1128 380 1143 q 337 1114 355 1114 q 307 1129 319 1114 q 295 1171 295 1143 m 265 0 l 199 0 l 199 387 l 0 991 l 71 991 l 233 479 l 395 991 l 465 991 l 265 387 l 265 0 z "},"Ž":{"ha":436,"x_min":39,"x_max":408,"o":"m 381 1293 l 381 1280 q 306 1170 343 1232 q 252 1071 269 1107 l 188 1071 q 62 1280 140 1172 l 62 1293 l 91 1293 q 166 1212 124 1261 q 222 1149 209 1163 l 255 1186 q 349 1293 330 1276 l 381 1293 m 408 64 l 408 0 l 39 0 l 39 60 l 326 926 l 43 926 l 43 991 l 400 991 l 400 930 l 109 64 l 408 64 z "},"ž":{"ha":367,"x_min":34,"x_max":353,"o":"m 353 1064 l 353 1051 q 278 940 315 1002 q 224 842 241 878 l 160 842 q 34 1051 113 943 l 34 1064 l 63 1064 q 139 983 96 1032 q 194 920 181 934 l 227 957 q 321 1064 302 1047 l 353 1064 m 335 57 l 335 0 l 40 0 l 40 52 l 257 679 l 54 679 l 54 736 l 325 736 l 325 684 l 109 57 l 335 57 z "},"ƒ":{"ha":555,"x_min":54,"x_max":496,"o":"m 240 764 q 275 947 240 888 q 389 1006 310 1006 q 496 979 439 1006 l 468 921 q 392 943 425 943 q 325 901 342 943 q 304 753 307 860 l 304 631 l 433 631 l 433 574 l 304 574 l 304 -75 q 267 -272 304 -210 q 140 -334 229 -334 q 54 -325 94 -334 l 54 -261 q 136 -273 103 -273 q 216 -231 192 -273 q 240 -100 240 -189 l 240 574 l 131 574 l 131 610 l 240 636 l 240 764 z "},"ˆ":{"ha":785,"x_min":232,"x_max":551,"o":"m 551 842 l 519 842 q 458 910 491 870 l 392 986 q 349 937 379 972 q 261 842 294 873 l 232 842 l 232 854 q 358 1064 315 968 l 422 1064 q 475 966 438 1027 q 551 854 516 901 l 551 842 z "},"ˇ":{"ha":785,"x_min":232,"x_max":551,"o":"m 551 1064 l 551 1051 q 476 940 513 1002 q 422 842 439 878 l 358 842 q 232 1051 311 943 l 232 1064 l 261 1064 q 337 983 294 1032 q 392 920 379 934 l 425 957 q 519 1064 500 1047 l 551 1064 z "},"˘":{"ha":785,"x_min":244,"x_max":539,"o":"m 387 844 q 244 1003 254 844 l 290 1003 q 321 927 295 954 q 390 901 347 901 q 490 1003 477 901 l 539 1003 q 497 886 537 928 q 387 844 457 844 z "},"˙":{"ha":261,"x_min":89,"x_max":174,"o":"m 89 941 q 89 955 89 941 q 101 987 89 970 q 133 1004 113 1004 q 163 987 152 1004 q 174 941 174 970 q 163 893 174 911 q 133 876 152 876 q 101 894 114 876 q 89 941 89 911 z "},"˚":{"ha":802,"x_min":267,"x_max":536,"o":"m 267 975 q 267 1004 267 975 q 303 1067 267 1033 q 400 1101 339 1101 q 498 1067 460 1101 q 536 976 536 1034 q 500 883 536 918 q 401 848 463 848 q 302 882 338 848 q 267 975 267 916 m 484 975 q 484 993 484 975 q 462 1032 484 1010 q 403 1054 441 1054 q 342 1032 365 1054 q 319 974 319 1010 q 340 917 319 939 q 400 896 361 896 q 461 918 438 896 q 484 975 484 939 z "},"˛":{"ha":260,"x_min":46,"x_max":211,"o":"m 107 -176 q 172 -250 107 -250 q 211 -244 199 -250 l 211 -294 q 160 -302 191 -302 q 46 -183 46 -302 q 76 -82 46 -132 q 146 0 105 -31 l 196 0 q 128 -89 149 -47 q 107 -176 107 -131 z "},"˜":{"ha":785,"x_min":201,"x_max":582,"o":"m 473 843 q 427 857 452 843 q 382 886 401 870 q 309 929 331 929 q 273 905 288 929 q 252 842 258 882 l 201 842 q 238 947 210 909 q 314 985 267 985 q 360 971 336 985 q 404 941 385 958 q 478 899 453 899 q 532 986 518 899 l 582 986 q 547 880 576 918 q 473 843 519 843 z "},"˝":{"ha":787,"x_min":196,"x_max":572,"o":"m 392 1064 l 392 1053 q 317 941 364 1004 q 228 842 271 880 l 196 842 l 196 856 q 260 960 226 895 q 311 1064 295 1025 l 392 1064 m 572 1064 l 572 1053 q 499 942 547 1004 q 408 842 452 881 l 376 842 l 376 856 q 441 960 406 895 q 492 1064 475 1025 l 572 1064 z "},"ְ":{"ha":0,"x_min":-41,"x_max":44,"o":"m 1 -54 q 44 -105 44 -54 q 1 -156 44 -156 q -41 -105 -41 -156 q 1 -54 -41 -54 m 1 -233 q 44 -284 44 -233 q 1 -335 44 -335 q -41 -284 -41 -335 q 1 -233 -41 -233 z "},"ֱ":{"ha":0,"x_min":-226,"x_max":226,"o":"m -184 -54 q -142 -105 -142 -54 q -184 -156 -142 -156 q -226 -105 -226 -156 q -184 -54 -226 -54 m 10 -54 q 53 -105 53 -54 q 10 -156 53 -156 q -31 -105 -31 -156 q 10 -54 -31 -54 m 182 -54 q 226 -105 226 -54 q 182 -156 226 -156 q 142 -105 142 -156 q 182 -54 142 -54 m -88 -233 q -45 -284 -45 -233 q -88 -335 -45 -335 q -130 -284 -130 -335 q -88 -233 -130 -233 m 182 -233 q 226 -284 226 -233 q 182 -335 226 -335 q 142 -284 142 -335 q 182 -233 142 -233 z "},"ֲ":{"ha":0,"x_min":-195,"x_max":194,"o":"m 151 -54 q 194 -105 194 -54 q 151 -156 194 -156 q 109 -105 109 -156 q 151 -54 109 -54 m 47 -129 l -195 -129 l -195 -81 l 47 -81 l 47 -129 m 151 -233 q 194 -284 194 -233 q 151 -335 194 -335 q 109 -284 109 -335 q 151 -233 109 -233 z "},"ֳ":{"ha":0,"x_min":-195,"x_max":194,"o":"m 151 -54 q 194 -105 194 -54 q 151 -156 194 -156 q 109 -105 109 -156 q 151 -54 109 -54 m 47 -129 l -50 -129 l -50 -266 l -98 -266 l -98 -129 l -195 -129 l -195 -81 l 47 -81 l 47 -129 m 151 -233 q 194 -284 194 -233 q 151 -335 194 -335 q 109 -284 109 -335 q 151 -233 109 -233 z "},"ִ":{"ha":0,"x_min":-41,"x_max":43,"o":"m 0 -54 q 43 -105 43 -54 q 0 -156 43 -156 q -41 -105 -41 -156 q 0 -54 -41 -54 z "},"ֵ":{"ha":0,"x_min":-139,"x_max":140,"o":"m -98 -54 q -55 -105 -55 -54 q -98 -156 -55 -156 q -139 -105 -139 -156 q -98 -54 -139 -54 m 97 -54 q 140 -105 140 -54 q 97 -156 140 -156 q 56 -105 56 -156 q 97 -54 56 -54 z "},"ֶ":{"ha":0,"x_min":-138,"x_max":141,"o":"m -96 -54 q -54 -105 -54 -54 q -96 -156 -54 -156 q -138 -105 -138 -156 q -96 -54 -138 -54 m 98 -54 q 141 -105 141 -54 q 98 -156 141 -156 q 57 -105 57 -156 q 98 -54 57 -54 m 0 -233 q 43 -284 43 -233 q 0 -335 43 -335 q -41 -284 -41 -335 q 0 -233 -41 -233 z "},"ַ":{"ha":0,"x_min":-121,"x_max":121,"o":"m 121 -124 l -121 -124 l -121 -75 l 121 -75 l 121 -124 z "},"ָ":{"ha":0,"x_min":-121,"x_max":121,"o":"m 121 -124 l 24 -124 l 24 -260 l -24 -260 l -24 -124 l -121 -124 l -121 -75 l 121 -75 l 121 -124 z "},"ֹ":{"ha":0,"x_min":-41,"x_max":43,"o":"m 0 1058 q 43 1007 43 1058 q 0 956 43 956 q -41 1007 -41 956 q 0 1058 -41 1058 z "},"ֺ":{"ha":0,"x_min":-41,"x_max":43,"o":"m 0 1058 q 43 1007 43 1058 q 0 956 43 956 q -41 1007 -41 956 q 0 1058 -41 1058 z "},"ֻ":{"ha":0,"x_min":-138,"x_max":141,"o":"m -96 -54 q -54 -105 -54 -54 q -96 -156 -54 -156 q -138 -105 -138 -156 q -96 -54 -138 -54 m 0 -143 q 43 -194 43 -143 q 0 -245 43 -245 q -41 -194 -41 -245 q 0 -143 -41 -143 m 98 -233 q 141 -284 141 -233 q 98 -335 141 -335 q 57 -284 57 -335 q 98 -233 57 -233 z "},"ּ":{"ha":0,"x_min":-41,"x_max":43,"o":"m 0 505 q 43 454 43 505 q 0 404 43 404 q -41 454 -41 404 q 0 505 -41 505 z "},"ֽ":{"ha":0,"x_min":-31,"x_max":30,"o":"m 30 -300 l -31 -300 l -31 -93 l 30 -93 l 30 -300 z "},"־":{"ha":350,"x_min":36,"x_max":314,"o":"m 314 805 l 36 805 l 36 874 l 314 874 l 314 805 z "},"ׁ":{"ha":0,"x_min":-41,"x_max":43,"o":"m 0 1058 q 43 1007 43 1058 q 0 956 43 956 q -41 1007 -41 956 q 0 1058 -41 1058 z "},"ׂ":{"ha":0,"x_min":-42,"x_max":43,"o":"m -1 1058 q 43 1007 43 1058 q -1 956 43 956 q -42 1007 -42 956 q -1 1058 -42 1058 z "},"ׇ":{"ha":0,"x_min":-99,"x_max":96,"o":"m 96 -87 l 22 -87 l 22 -167 l -26 -167 l -26 -87 l -99 -87 l -99 -39 l 96 -39 l 96 -87 z "},"א":{"ha":527,"x_min":49,"x_max":477,"o":"m 469 875 l 469 557 q 466 485 469 516 q 452 414 463 453 q 354 298 429 336 l 477 0 l 407 0 l 193 523 q 130 443 149 494 q 111 307 111 391 l 111 0 l 49 0 l 49 307 q 68 456 49 387 q 105 529 79 496 q 170 580 131 561 l 49 875 l 118 875 l 330 358 q 390 431 372 385 q 408 558 408 477 l 408 875 l 469 875 z "},"ב":{"ha":507,"x_min":64,"x_max":486,"o":"m 64 882 q 190 888 133 888 q 279 883 248 888 q 340 861 311 877 q 388 818 370 845 q 428 644 428 760 l 428 57 l 486 57 l 486 0 l 64 0 l 64 57 l 363 57 l 363 644 q 338 780 363 736 q 262 826 317 817 q 208 830 239 830 q 84 825 153 830 l 64 823 l 64 882 z "},"ג":{"ha":445,"x_min":78,"x_max":349,"o":"m 189 888 q 349 691 349 888 l 349 0 l 295 0 l 288 144 l 283 144 q 247 59 264 84 q 121 -3 205 -3 q 78 5 100 -3 l 90 68 q 127 60 106 60 q 245 135 206 60 q 285 347 285 210 l 285 691 q 267 788 285 753 q 183 830 247 830 q 117 819 159 830 l 117 878 q 189 888 155 888 z "},"ד":{"ha":460,"x_min":12,"x_max":439,"o":"m 439 875 l 439 825 q 366 788 393 810 q 324 747 338 767 q 294 629 294 701 l 294 0 l 229 0 l 229 629 q 239 704 229 669 q 262 758 248 738 q 311 812 290 800 l 320 818 l 12 818 l 12 875 l 439 875 z "},"ה":{"ha":621,"x_min":98,"x_max":526,"o":"m 98 875 q 289 888 237 888 q 384 879 341 888 q 461 843 427 869 q 510 768 495 817 q 526 644 526 720 l 526 0 l 460 0 l 460 644 q 451 742 460 705 q 417 798 441 779 q 361 824 393 818 q 292 830 330 830 q 98 816 255 830 l 98 875 m 163 0 l 98 0 l 98 551 l 163 551 l 163 0 z "},"ו":{"ha":261,"x_min":98,"x_max":163,"o":"m 163 0 l 98 0 l 98 875 l 163 875 l 163 0 z "},"ז":{"ha":290,"x_min":92,"x_max":269,"o":"m 269 875 l 269 825 q 207 722 231 795 q 184 553 184 648 l 184 0 l 119 0 l 119 553 q 144 725 119 654 q 195 818 170 796 l 92 818 l 92 875 l 269 875 z "},"ח":{"ha":621,"x_min":98,"x_max":526,"o":"m 98 0 l 98 875 q 289 888 237 888 q 384 879 341 888 q 461 843 427 869 q 510 768 495 817 q 526 644 526 720 l 526 0 l 460 0 l 460 644 q 451 742 460 705 q 417 798 441 779 q 361 824 393 818 q 286 830 330 830 q 163 822 241 830 l 163 0 l 98 0 z "},"ט":{"ha":600,"x_min":64,"x_max":536,"o":"m 300 888 q 536 437 536 888 q 300 -14 536 -14 q 64 437 64 -14 l 64 875 l 130 875 l 130 437 q 180 125 130 213 q 234 65 205 83 q 300 47 262 47 q 366 65 337 47 q 418 125 394 83 q 469 437 469 212 q 418 750 469 663 q 365 810 394 792 q 302 829 336 829 q 237 823 269 830 l 237 883 q 300 888 268 888 z "},"י":{"ha":254,"x_min":95,"x_max":159,"o":"m 95 327 l 95 875 l 159 875 l 159 401 l 101 327 l 95 327 z "},"ך":{"ha":461,"x_min":28,"x_max":366,"o":"m 136 888 q 366 489 366 888 l 366 -334 l 300 -334 l 300 489 q 136 827 300 827 q 28 793 81 827 l 28 863 q 136 888 76 888 z "},"כ":{"ha":431,"x_min":28,"x_max":366,"o":"m 136 888 q 366 489 366 888 l 366 361 q 136 -14 366 -14 q 46 0 90 -14 l 32 5 l 32 67 q 136 45 71 45 q 251 114 210 45 q 283 194 275 155 q 294 253 291 233 q 298 298 296 273 q 300 361 300 335 l 300 489 q 136 827 300 827 q 28 793 81 827 l 28 863 q 136 888 76 888 z "},"ל":{"ha":411,"x_min":31,"x_max":389,"o":"m 95 879 l 389 879 l 389 804 l 282 344 l 220 0 l 155 0 l 215 336 l 330 817 l 31 817 l 31 1064 l 95 1064 l 95 879 z "},"ם":{"ha":621,"x_min":98,"x_max":526,"o":"m 98 0 l 98 875 q 287 888 237 888 q 376 883 337 888 q 446 864 414 878 q 494 823 477 850 q 526 652 526 768 l 526 0 l 98 0 m 461 57 l 461 652 q 447 770 461 737 q 427 802 438 791 q 392 820 415 813 q 343 828 368 827 q 280 830 318 830 q 163 822 241 830 l 163 57 l 461 57 z "},"מ":{"ha":583,"x_min":40,"x_max":487,"o":"m 220 852 q 266 877 237 865 q 332 888 296 888 q 397 874 369 888 q 443 837 426 861 q 471 774 460 813 q 487 599 487 710 l 487 0 l 272 0 l 272 57 l 422 57 l 422 599 q 410 765 422 729 q 368 823 393 811 q 323 830 351 830 q 266 815 295 830 q 220 777 237 800 q 173 697 184 731 l 168 682 l 105 0 l 40 0 l 103 682 q 104 718 104 697 q 75 844 104 764 l 63 875 l 132 875 q 161 783 151 831 l 165 783 q 220 852 186 825 z "},"ן":{"ha":271,"x_min":78,"x_max":176,"o":"m 176 614 l 176 -334 l 111 -334 l 111 614 q 103 734 111 669 q 87 837 95 800 l 78 875 l 143 875 q 176 614 176 743 z "},"נ":{"ha":386,"x_min":26,"x_max":291,"o":"m 130 888 q 291 691 291 888 l 291 223 q 284 121 291 177 q 271 33 278 66 l 264 0 l 26 0 l 26 57 l 208 57 q 227 223 227 143 l 227 691 q 209 788 227 753 q 125 830 189 830 q 59 819 101 830 l 59 878 q 130 888 96 888 z "},"ס":{"ha":600,"x_min":64,"x_max":536,"o":"m 300 888 q 536 437 536 888 q 300 -14 536 -14 q 64 437 64 -14 q 85 664 64 575 q 163 824 106 753 l 78 819 l 78 879 q 300 888 230 888 m 236 826 q 154 674 176 766 q 131 454 131 583 q 144 247 131 326 q 181 125 157 168 q 234 65 205 83 q 300 47 262 47 q 366 65 337 47 q 418 125 394 83 q 456 247 443 168 q 469 437 469 326 q 456 628 469 549 q 418 749 443 707 q 366 809 394 791 q 300 827 337 827 l 236 826 z "},"ע":{"ha":574,"x_min":49,"x_max":553,"o":"m 553 875 l 513 492 q 483 263 496 325 q 366 52 450 115 q 223 -4 309 9 l 49 -33 l 49 24 l 218 53 l 239 57 l 54 875 l 119 875 l 210 479 l 295 78 q 416 270 384 125 q 450 492 435 355 l 488 875 l 553 875 z "},"ף":{"ha":618,"x_min":64,"x_max":524,"o":"m 266 299 q 113 374 163 299 q 64 584 64 450 q 125 803 64 718 q 288 888 186 888 q 524 437 524 888 l 524 -334 l 459 -334 l 459 437 q 288 827 459 827 q 214 804 246 827 q 162 742 181 780 q 123 583 123 666 q 169 393 123 449 q 271 350 204 350 l 280 350 l 269 299 l 266 299 z "},"פ":{"ha":587,"x_min":64,"x_max":524,"o":"m 266 299 q 113 374 163 299 q 64 584 64 450 q 125 803 64 718 q 288 888 186 888 q 524 437 524 888 q 458 99 524 211 q 276 -14 393 -14 q 146 -3 205 -14 l 126 0 l 126 60 q 276 47 196 47 q 330 58 305 47 q 379 96 355 68 q 419 165 403 123 q 456 437 456 262 q 406 749 456 663 q 353 809 382 791 q 286 827 325 827 q 214 804 246 827 q 162 742 181 780 q 123 583 123 666 q 169 393 123 449 q 271 350 204 350 l 280 350 l 269 299 l 266 299 z "},"ץ":{"ha":422,"x_min":0,"x_max":380,"o":"m 380 875 l 380 575 q 347 416 380 490 q 292 347 328 377 q 205 302 256 316 l 205 -334 l 136 -334 l 136 373 l 0 875 l 69 875 l 205 368 q 288 446 259 397 q 316 576 316 494 l 316 875 l 380 875 z "},"צ":{"ha":512,"x_min":40,"x_max":462,"o":"m 456 0 l 40 0 l 40 57 l 374 57 l 230 402 l 40 875 l 109 875 l 299 402 l 304 389 q 351 508 336 441 q 376 665 366 575 l 398 875 l 462 875 l 441 665 q 405 454 427 531 q 332 323 382 377 l 456 29 l 456 0 z "},"ק":{"ha":578,"x_min":98,"x_max":530,"o":"m 320 12 l 320 0 l 257 0 l 257 12 q 263 68 257 38 l 273 118 q 300 226 280 154 q 323 312 319 298 q 337 360 327 326 q 349 402 347 394 l 465 818 l 98 818 l 98 875 l 530 875 l 530 818 l 413 402 q 394 334 405 374 q 374 262 382 293 q 360 210 365 231 q 348 162 355 190 q 336 115 340 134 q 328 75 332 96 q 320 12 320 33 m 163 -334 l 99 -334 l 99 515 l 163 515 l 163 -334 z "},"ר":{"ha":453,"x_min":16,"x_max":358,"o":"m 16 882 q 121 888 68 888 q 205 885 174 888 q 263 870 236 881 q 307 843 290 860 q 336 798 323 825 q 358 644 358 749 l 358 0 l 294 0 l 294 644 q 287 742 294 707 q 260 798 280 778 q 211 824 240 819 q 144 830 182 830 q 31 825 85 830 l 16 823 l 16 882 z "},"ש":{"ha":711,"x_min":50,"x_max":661,"o":"m 195 0 l 124 0 l 50 875 l 110 875 l 151 378 q 269 486 231 414 q 321 703 307 557 l 338 875 l 395 875 l 378 703 q 356 559 370 617 q 318 451 343 500 q 254 369 294 401 q 157 315 215 336 l 178 59 l 195 59 q 339 92 273 59 q 452 184 406 125 q 566 498 547 306 l 603 875 l 661 875 l 623 498 q 547 220 608 338 q 466 106 512 154 q 350 29 419 58 q 195 0 280 0 z "},"ת":{"ha":604,"x_min":11,"x_max":505,"o":"m 43 873 q 246 888 175 888 q 351 883 317 888 q 415 861 385 877 q 465 819 446 846 q 505 644 505 760 l 505 0 l 441 0 l 441 644 q 414 780 441 736 q 332 826 391 817 q 280 830 308 830 q 163 825 253 830 l 163 138 q 138 32 163 63 q 64 0 113 0 q 11 5 38 0 l 11 67 q 52 62 41 62 q 98 138 98 62 l 98 819 l 43 814 l 43 873 z "},"׳":{"ha":214,"x_min":29,"x_max":185,"o":"m 176 875 l 185 861 q 130 696 149 747 l 72 556 l 29 556 q 75 738 61 661 q 93 845 88 816 l 98 875 l 176 875 z "},"״":{"ha":406,"x_min":29,"x_max":376,"o":"m 176 875 l 185 861 q 130 696 149 747 l 72 556 l 29 556 q 75 738 61 661 q 93 845 88 816 l 98 875 l 176 875 m 368 875 l 376 861 q 321 696 340 747 l 263 556 l 220 556 q 266 738 252 661 q 284 845 279 816 l 289 875 l 368 875 z "},"–":{"ha":694,"x_min":56,"x_max":639,"o":"m 639 347 l 56 347 l 56 403 l 639 403 l 639 347 z "},"—":{"ha":1389,"x_min":56,"x_max":1333,"o":"m 1333 347 l 56 347 l 56 403 l 1333 403 l 1333 347 z "},"‘":{"ha":214,"x_min":29,"x_max":184,"o":"m 142 991 l 184 991 q 117 673 134 821 l 39 673 l 29 689 q 142 991 75 844 z "},"’":{"ha":214,"x_min":29,"x_max":184,"o":"m 175 991 l 184 977 q 72 673 140 827 l 29 673 q 97 991 79 844 l 175 991 z "},"‚":{"ha":286,"x_min":53,"x_max":208,"o":"m 199 139 l 208 123 q 96 -179 163 -32 l 53 -179 q 121 139 103 -8 l 199 139 z "},"“":{"ha":406,"x_min":29,"x_max":376,"o":"m 142 991 l 184 991 q 117 673 134 821 l 39 673 l 29 689 q 142 991 75 844 m 334 991 l 376 991 q 309 673 326 821 l 231 673 l 221 689 q 334 991 267 844 z "},"”":{"ha":406,"x_min":29,"x_max":376,"o":"m 175 991 l 184 977 q 72 673 140 827 l 29 673 q 97 991 79 844 l 175 991 m 367 991 l 376 977 q 264 673 332 827 l 221 673 q 289 991 271 844 l 367 991 z "},"„":{"ha":447,"x_min":22,"x_max":370,"o":"m 168 139 l 178 123 q 65 -179 132 -32 l 22 -179 q 90 139 73 -8 l 168 139 m 214 -179 q 282 139 267 5 l 359 139 l 370 123 q 257 -179 330 -14 l 214 -179 z "},"†":{"ha":599,"x_min":83,"x_max":515,"o":"m 315 765 l 515 778 l 515 715 l 315 722 l 332 0 l 253 0 l 269 722 l 83 715 l 83 778 l 269 765 l 253 1055 l 332 1055 l 315 765 z "},"‡":{"ha":599,"x_min":83,"x_max":515,"o":"m 315 796 l 515 808 l 515 746 l 315 753 l 322 533 l 315 302 l 515 310 l 515 248 l 315 258 l 332 0 l 253 0 l 269 258 l 83 248 l 83 310 l 269 302 l 261 533 l 269 753 l 83 746 l 83 808 l 269 796 l 253 1055 l 332 1055 l 315 796 z "},"•":{"ha":522,"x_min":114,"x_max":408,"o":"m 152 629 q 171 650 152 629 q 261 671 190 671 q 370 629 332 671 q 408 508 408 588 q 370 386 408 428 q 262 343 332 343 q 153 386 191 343 q 114 508 114 428 q 152 629 114 588 z "},"…":{"ha":859,"x_min":90,"x_max":768,"o":"m 90 61 q 90 97 90 61 q 143 134 90 134 q 196 61 196 134 q 181 7 196 24 q 143 -11 167 -11 q 90 61 90 -11 m 376 61 q 376 97 376 61 q 429 134 376 134 q 482 61 482 134 q 468 7 482 24 q 429 -11 453 -11 q 376 61 376 -11 m 663 61 q 663 97 663 61 q 715 134 663 134 q 768 61 768 134 q 754 7 768 24 q 715 -11 739 -11 q 663 61 663 -11 z "},"‰":{"ha":1165,"x_min":64,"x_max":1084,"o":"m 64 696 q 64 771 64 696 q 98 926 64 847 q 200 1006 133 1006 q 303 927 268 1006 q 339 697 339 848 q 302 465 339 547 q 200 383 266 383 q 99 464 134 383 q 64 696 64 545 m 279 0 l 216 0 l 541 991 l 600 991 l 279 0 m 199 953 q 142 891 159 953 q 125 697 125 829 q 142 503 125 565 q 201 440 160 440 q 260 503 241 440 q 278 697 278 566 q 199 953 278 953 m 481 301 q 481 377 481 301 q 515 530 481 452 q 617 608 550 608 q 720 529 684 608 q 755 299 755 450 q 719 67 755 149 q 616 -14 682 -14 q 516 68 551 -14 q 481 301 481 149 m 844 529 q 862 569 844 529 q 946 608 879 608 q 1049 529 1013 608 q 1084 300 1084 450 q 1048 68 1084 151 q 945 -14 1011 -14 q 845 67 880 -14 q 810 299 810 149 q 844 529 810 450 m 615 555 q 559 493 576 555 q 542 299 542 431 q 559 105 542 168 q 618 43 576 43 q 676 105 658 43 q 694 300 694 168 q 615 555 694 555 m 945 555 q 888 493 905 555 q 871 299 871 431 q 888 105 871 168 q 947 43 906 43 q 1005 105 987 43 q 1023 300 1023 168 q 945 555 1023 555 z "},"‹":{"ha":347,"x_min":56,"x_max":292,"o":"m 292 591 l 143 358 l 292 125 l 250 100 l 56 349 l 56 367 l 250 615 l 292 591 z "},"›":{"ha":347,"x_min":56,"x_max":292,"o":"m 292 367 l 292 349 l 97 100 l 56 125 l 204 358 l 56 591 l 97 615 l 292 367 z "},"⁄":{"ha":180,"x_min":-201,"x_max":382,"o":"m -139 0 l -201 0 l 319 991 l 382 991 l -139 0 z "},"₪":{"ha":767,"x_min":98,"x_max":672,"o":"m 98 875 l 194 875 q 302 869 257 875 q 388 848 347 864 q 452 806 428 833 q 504 633 504 748 l 504 179 l 439 179 l 439 633 q 398 768 439 724 q 279 814 363 805 q 194 818 245 818 l 163 818 l 163 0 l 98 0 l 98 875 m 672 875 l 672 439 q 656 250 672 328 q 602 114 640 172 q 336 0 528 0 l 256 0 l 256 696 l 320 696 l 320 57 l 336 57 q 529 118 466 57 q 601 301 587 174 q 608 439 608 358 l 608 875 l 672 875 z "},"€":{"ha":555,"x_min":24,"x_max":524,"o":"m 24 610 l 119 610 q 199 900 130 792 q 372 1007 268 1007 q 524 957 455 1007 l 489 899 q 375 940 431 940 q 189 610 214 940 l 410 610 l 410 554 l 186 554 l 184 503 l 184 453 l 186 418 l 387 418 l 387 363 l 189 363 q 248 129 199 205 q 386 53 296 53 q 513 85 454 53 l 513 17 q 386 -14 454 -14 q 200 80 267 -14 q 119 363 134 173 l 24 363 l 24 418 l 117 418 l 115 486 l 115 513 l 117 554 l 24 554 l 24 610 z "},"™":{"ha":985,"x_min":9,"x_max":886,"o":"m 364 939 l 215 939 l 215 503 l 157 503 l 157 939 l 9 939 l 9 991 l 364 991 l 364 939 m 886 503 l 828 503 l 828 772 l 832 913 l 827 913 l 672 503 l 623 503 l 472 916 l 467 916 l 471 779 l 471 503 l 415 503 l 415 991 l 500 991 l 650 581 l 802 991 l 886 991 l 886 503 z "},"ﬁ":{"ha":568,"x_min":14,"x_max":481,"o":"m 107 799 q 140 1001 107 939 q 256 1063 174 1063 q 342 1046 304 1063 l 319 986 q 254 1003 285 1003 q 189 959 205 1001 q 171 798 172 916 l 171 736 l 286 736 l 286 679 l 171 679 l 171 0 l 107 0 l 107 679 l 14 679 l 14 715 l 107 743 l 107 799 m 396 941 q 396 955 396 941 q 408 987 396 970 q 440 1004 420 1004 q 470 987 459 1004 q 481 941 481 970 q 470 893 481 911 q 440 876 459 876 q 409 894 421 876 q 396 941 396 911 m 470 0 l 406 0 l 406 736 l 470 736 l 470 0 z "},"ﬂ":{"ha":568,"x_min":14,"x_max":470,"o":"m 107 799 q 140 1001 107 939 q 256 1063 174 1063 q 342 1046 304 1063 l 319 986 q 254 1003 285 1003 q 189 959 205 1001 q 171 798 172 916 l 171 736 l 286 736 l 286 679 l 171 679 l 171 0 l 107 0 l 107 679 l 14 679 l 14 715 l 107 743 l 107 799 m 470 0 l 406 0 l 406 1055 l 470 1055 l 470 0 z "},"שׁ":{"ha":711,"x_min":50,"x_max":673,"o":"m 629 1058 q 673 1007 673 1058 q 629 956 673 956 q 588 1007 588 956 q 629 1058 588 1058 m 195 0 l 124 0 l 50 875 l 110 875 l 151 378 q 269 486 231 414 q 321 703 307 557 l 338 875 l 395 875 l 378 703 q 356 559 370 617 q 318 451 343 500 q 254 369 294 401 q 157 315 215 336 l 178 59 l 195 59 q 339 92 273 59 q 452 184 406 125 q 566 498 547 306 l 603 875 l 661 875 l 623 498 q 547 220 608 338 q 466 106 512 154 q 350 29 419 58 q 195 0 280 0 z "},"שׂ":{"ha":711,"x_min":31,"x_max":661,"o":"m 73 1058 q 116 1007 116 1058 q 73 956 116 956 q 31 1007 31 956 q 73 1058 31 1058 m 195 0 l 124 0 l 50 875 l 110 875 l 151 378 q 269 486 231 414 q 321 703 307 557 l 338 875 l 395 875 l 378 703 q 356 559 370 617 q 318 451 343 500 q 254 369 294 401 q 157 315 215 336 l 178 59 l 195 59 q 339 92 273 59 q 452 184 406 125 q 566 498 547 306 l 603 875 l 661 875 l 623 498 q 547 220 608 338 q 466 106 512 154 q 350 29 419 58 q 195 0 280 0 z "},"שּׁ":{"ha":711,"x_min":50,"x_max":673,"o":"m 629 1058 q 673 1007 673 1058 q 629 956 673 956 q 588 1007 588 956 q 629 1058 588 1058 m 195 0 l 124 0 l 50 875 l 110 875 l 151 378 q 269 486 231 414 q 321 703 307 557 l 338 875 l 395 875 l 378 703 q 356 559 370 617 q 318 451 343 500 q 254 369 294 401 q 157 315 215 336 l 178 59 l 195 59 q 339 92 273 59 q 452 184 406 125 q 566 498 547 306 l 603 875 l 661 875 l 623 498 q 547 220 608 338 q 466 106 512 154 q 350 29 419 58 q 195 0 280 0 m 355 349 q 399 298 399 349 q 355 248 399 248 q 314 298 314 248 q 355 349 314 349 z "},"שּׂ":{"ha":711,"x_min":31,"x_max":661,"o":"m 73 1058 q 116 1007 116 1058 q 73 956 116 956 q 31 1007 31 956 q 73 1058 31 1058 m 195 0 l 124 0 l 50 875 l 110 875 l 151 378 q 269 486 231 414 q 321 703 307 557 l 338 875 l 395 875 l 378 703 q 356 559 370 617 q 318 451 343 500 q 254 369 294 401 q 157 315 215 336 l 178 59 l 195 59 q 339 92 273 59 q 452 184 406 125 q 566 498 547 306 l 603 875 l 661 875 l 623 498 q 547 220 608 338 q 466 106 512 154 q 350 29 419 58 q 195 0 280 0 m 355 349 q 399 298 399 349 q 355 248 399 248 q 314 298 314 248 q 355 349 314 349 z "},"אַ":{"ha":527,"x_min":49,"x_max":477,"o":"m 469 875 l 469 557 q 466 485 469 516 q 452 414 463 453 q 354 298 429 336 l 477 0 l 407 0 l 193 523 q 130 443 149 494 q 111 307 111 391 l 111 0 l 49 0 l 49 307 q 68 456 49 387 q 105 529 79 496 q 170 580 131 561 l 49 875 l 118 875 l 330 358 q 390 431 372 385 q 408 558 408 477 l 408 875 l 469 875 m 374 -199 l 132 -199 l 132 -150 l 374 -150 l 374 -199 z "},"אָ":{"ha":527,"x_min":49,"x_max":477,"o":"m 469 875 l 469 557 q 466 485 469 516 q 452 414 463 453 q 354 298 429 336 l 477 0 l 407 0 l 193 523 q 130 443 149 494 q 111 307 111 391 l 111 0 l 49 0 l 49 307 q 68 456 49 387 q 105 529 79 496 q 170 580 131 561 l 49 875 l 118 875 l 330 358 q 390 431 372 385 q 408 558 408 477 l 408 875 l 469 875 m 374 -199 l 277 -199 l 277 -335 l 229 -335 l 229 -199 l 132 -199 l 132 -150 l 374 -150 l 374 -199 z "},"אּ":{"ha":527,"x_min":49,"x_max":477,"o":"m 469 875 l 469 557 q 466 485 469 516 q 452 414 463 453 q 354 298 429 336 l 477 0 l 407 0 l 193 523 q 130 443 149 494 q 111 307 111 391 l 111 0 l 49 0 l 49 307 q 68 456 49 387 q 105 529 79 496 q 170 580 131 561 l 49 875 l 118 875 l 330 358 q 390 431 372 385 q 408 558 408 477 l 408 875 l 469 875 m 212 259 q 256 208 256 259 q 212 157 256 157 q 171 208 171 157 q 212 259 171 259 z "},"בּ":{"ha":507,"x_min":64,"x_max":486,"o":"m 64 882 q 190 888 133 888 q 279 883 248 888 q 340 861 311 877 q 388 818 370 845 q 428 644 428 760 l 428 57 l 486 57 l 486 0 l 64 0 l 64 57 l 363 57 l 363 644 q 338 780 363 736 q 262 826 317 817 q 208 830 239 830 q 84 825 153 830 l 64 823 l 64 882 m 192 505 q 235 454 235 505 q 192 404 235 404 q 151 454 151 404 q 192 505 151 505 z "},"גּ":{"ha":445,"x_min":78,"x_max":349,"o":"m 189 888 q 349 691 349 888 l 349 0 l 295 0 l 288 144 l 283 144 q 247 59 264 84 q 121 -3 205 -3 q 78 5 100 -3 l 90 68 q 127 60 106 60 q 245 135 206 60 q 285 347 285 210 l 285 691 q 267 788 285 753 q 183 830 247 830 q 117 819 159 830 l 117 878 q 189 888 155 888 m 172 505 q 215 454 215 505 q 172 404 215 404 q 130 454 130 404 q 172 505 130 505 z "},"דּ":{"ha":460,"x_min":12,"x_max":439,"o":"m 439 875 l 439 825 q 366 788 393 810 q 324 747 338 767 q 294 629 294 701 l 294 0 l 229 0 l 229 629 q 239 704 229 669 q 262 758 248 738 q 311 812 290 800 l 320 818 l 12 818 l 12 875 l 439 875 m 149 505 q 193 454 193 505 q 149 404 193 404 q 108 454 108 404 q 149 505 108 505 z "},"הּ":{"ha":621,"x_min":98,"x_max":526,"o":"m 98 875 q 289 888 237 888 q 384 879 341 888 q 461 843 427 869 q 510 768 495 817 q 526 644 526 720 l 526 0 l 460 0 l 460 644 q 451 742 460 705 q 417 798 441 779 q 361 824 393 818 q 292 830 330 830 q 98 816 255 830 l 98 875 m 98 0 l 98 551 l 163 551 l 163 0 l 98 0 m 311 505 q 354 454 354 505 q 311 404 354 404 q 269 454 269 404 q 311 505 269 505 z "},"וּ":{"ha":261,"x_min":-35,"x_max":163,"o":"m 98 0 l 98 875 l 163 875 l 163 0 l 98 0 m 6 505 q 50 454 50 505 q 6 404 50 404 q -35 454 -35 404 q 6 505 -35 505 z "},"זּ":{"ha":290,"x_min":-14,"x_max":269,"o":"m 269 875 l 269 825 q 207 722 231 795 q 184 553 184 648 l 184 0 l 119 0 l 119 553 q 144 725 119 654 q 195 818 170 796 l 92 818 l 92 875 l 269 875 m 28 505 q 71 454 71 505 q 28 404 71 404 q -14 454 -14 404 q 28 505 -14 505 z "},"טּ":{"ha":600,"x_min":64,"x_max":536,"o":"m 300 888 q 536 437 536 888 q 300 -14 536 -14 q 64 437 64 -14 l 64 875 l 130 875 l 130 437 q 180 125 130 213 q 234 65 205 83 q 300 47 262 47 q 366 65 337 47 q 418 125 394 83 q 469 437 469 212 q 418 750 469 663 q 365 810 394 792 q 302 829 336 829 q 237 823 269 830 l 237 883 q 300 888 268 888 m 300 505 q 343 454 343 505 q 300 404 343 404 q 258 454 258 404 q 300 505 258 505 z "},"יּ":{"ha":254,"x_min":-37,"x_max":159,"o":"m 95 327 l 95 875 l 159 875 l 159 401 l 101 327 l 95 327 m 5 585 q 48 534 48 585 q 5 483 48 483 q -37 534 -37 483 q 5 585 -37 585 z "},"ךּ":{"ha":461,"x_min":28,"x_max":366,"o":"m 136 888 q 366 489 366 888 l 366 -334 l 300 -334 l 300 489 q 136 827 300 827 q 28 793 81 827 l 28 863 q 136 888 76 888 m 131 505 q 174 454 174 505 q 131 404 174 404 q 90 454 90 404 q 131 505 90 505 z "},"כּ":{"ha":431,"x_min":28,"x_max":366,"o":"m 136 888 q 366 489 366 888 l 366 361 q 136 -14 366 -14 q 46 0 90 -14 l 32 5 l 32 67 q 136 45 71 45 q 251 114 210 45 q 283 194 275 155 q 294 253 291 233 q 298 298 296 273 q 300 361 300 335 l 300 489 q 136 827 300 827 q 28 793 81 827 l 28 863 q 136 888 76 888 m 131 505 q 174 454 174 505 q 131 404 174 404 q 90 454 90 404 q 131 505 90 505 z "},"לּ":{"ha":411,"x_min":31,"x_max":389,"o":"m 389 879 l 389 804 l 282 344 l 220 0 l 155 0 l 215 336 l 330 817 l 31 817 l 31 1064 l 95 1064 l 95 879 l 389 879 m 100 505 q 143 454 143 505 q 100 404 143 404 q 58 454 58 404 q 100 505 58 505 z "},"מּ":{"ha":583,"x_min":40,"x_max":487,"o":"m 220 852 q 266 877 237 865 q 332 888 296 888 q 397 874 369 888 q 443 837 426 861 q 471 774 460 813 q 487 599 487 710 l 487 0 l 272 0 l 272 57 l 422 57 l 422 599 q 410 765 422 729 q 368 823 393 811 q 323 830 351 830 q 266 815 295 830 q 220 777 237 800 q 173 697 184 731 l 168 682 l 105 0 l 40 0 l 103 682 q 104 718 104 697 q 75 844 104 764 l 63 875 l 132 875 q 161 783 151 831 l 165 783 q 220 852 186 825 m 292 505 q 335 454 335 505 q 292 404 335 404 q 250 454 250 404 q 292 505 250 505 z "},"נּ":{"ha":386,"x_min":26,"x_max":291,"o":"m 130 888 q 291 691 291 888 l 291 223 q 284 121 291 177 q 271 33 278 66 l 264 0 l 26 0 l 26 57 l 208 57 q 227 223 227 143 l 227 691 q 209 788 227 753 q 125 830 189 830 q 59 819 101 830 l 59 878 q 130 888 96 888 m 113 505 q 157 454 157 505 q 113 404 157 404 q 72 454 72 404 q 113 505 72 505 z "},"סּ":{"ha":600,"x_min":64,"x_max":536,"o":"m 300 888 q 536 437 536 888 q 300 -14 536 -14 q 64 437 64 -14 q 85 664 64 575 q 163 824 106 753 l 78 819 l 78 879 q 300 888 230 888 m 236 826 q 154 674 176 766 q 131 454 131 583 q 144 247 131 326 q 181 125 157 168 q 234 65 205 83 q 300 47 262 47 q 366 65 337 47 q 418 125 394 83 q 456 247 443 168 q 469 437 469 326 q 456 628 469 549 q 418 749 443 707 q 366 809 394 791 q 300 827 337 827 l 236 826 m 300 505 q 343 454 343 505 q 300 404 343 404 q 258 454 258 404 q 300 505 258 505 z "},"ףּ":{"ha":618,"x_min":64,"x_max":524,"o":"m 266 299 q 113 374 163 299 q 64 584 64 450 q 125 803 64 718 q 288 888 186 888 q 524 437 524 888 l 524 -334 l 459 -334 l 459 437 q 288 827 459 827 q 214 804 246 827 q 162 742 181 780 q 123 583 123 666 q 169 393 123 449 q 271 350 204 350 l 280 350 l 269 299 l 266 299 m 276 625 q 319 574 319 625 q 276 524 319 524 q 235 574 235 524 q 276 625 235 625 z "},"פּ":{"ha":587,"x_min":64,"x_max":524,"o":"m 266 299 q 113 374 163 299 q 64 584 64 450 q 125 803 64 718 q 288 888 186 888 q 524 437 524 888 q 458 99 524 211 q 276 -14 393 -14 q 146 -3 205 -14 l 126 0 l 126 60 q 276 47 196 47 q 330 58 305 47 q 379 96 355 68 q 419 165 403 123 q 456 437 456 262 q 406 749 456 663 q 353 809 382 791 q 286 827 325 827 q 214 804 246 827 q 162 742 181 780 q 123 583 123 666 q 169 393 123 449 q 271 350 204 350 l 280 350 l 269 299 l 266 299 m 294 625 q 337 574 337 625 q 294 524 337 524 q 252 574 252 524 q 294 625 252 625 z "},"צּ":{"ha":512,"x_min":40,"x_max":462,"o":"m 456 0 l 40 0 l 40 57 l 374 57 l 230 402 l 40 875 l 109 875 l 299 402 l 304 389 q 351 508 336 441 q 376 665 366 575 l 398 875 l 462 875 l 441 665 q 405 454 427 531 q 332 323 382 377 l 456 29 l 456 0 m 131 290 q 174 239 174 290 q 131 189 174 189 q 90 239 90 189 q 131 290 90 290 z "},"קּ":{"ha":578,"x_min":98,"x_max":530,"o":"m 320 12 l 320 0 l 257 0 l 257 12 q 263 68 257 38 l 273 118 q 300 226 280 154 q 323 312 319 298 q 337 360 327 326 q 349 402 347 394 l 465 818 l 98 818 l 98 875 l 530 875 l 530 818 l 413 402 q 394 334 405 374 q 374 262 382 293 q 360 210 365 231 q 348 162 355 190 q 336 115 340 134 q 328 75 332 96 q 320 12 320 33 m 99 -334 l 99 515 l 163 515 l 163 -334 l 99 -334 m 262 505 q 306 454 306 505 q 262 404 306 404 q 221 454 221 404 q 262 505 221 505 z "},"רּ":{"ha":453,"x_min":16,"x_max":358,"o":"m 16 882 q 121 888 68 888 q 205 885 174 888 q 263 870 236 881 q 307 843 290 860 q 336 798 323 825 q 358 644 358 749 l 358 0 l 294 0 l 294 644 q 287 742 294 707 q 260 798 280 778 q 211 824 240 819 q 144 830 182 830 q 31 825 85 830 l 16 823 l 16 882 m 149 505 q 193 454 193 505 q 149 404 193 404 q 108 454 108 404 q 149 505 108 505 z "},"שּ":{"ha":711,"x_min":50,"x_max":661,"o":"m 195 0 l 124 0 l 50 875 l 110 875 l 151 378 q 269 486 231 414 q 321 703 307 557 l 338 875 l 395 875 l 378 703 q 356 559 370 617 q 318 451 343 500 q 254 369 294 401 q 157 315 215 336 l 178 59 l 195 59 q 339 92 273 59 q 452 184 406 125 q 566 498 547 306 l 603 875 l 661 875 l 623 498 q 547 220 608 338 q 466 106 512 154 q 350 29 419 58 q 195 0 280 0 m 355 349 q 399 298 399 349 q 355 248 399 248 q 314 298 314 248 q 355 349 314 349 z "},"תּ":{"ha":604,"x_min":11,"x_max":505,"o":"m 43 873 q 246 888 175 888 q 351 883 317 888 q 415 861 385 877 q 465 819 446 846 q 505 644 505 760 l 505 0 l 441 0 l 441 644 q 414 780 441 736 q 332 826 391 817 q 280 830 308 830 q 163 825 253 830 l 163 138 q 138 32 163 63 q 64 0 113 0 q 11 5 38 0 l 11 67 q 52 62 41 62 q 98 138 98 62 l 98 819 l 43 814 l 43 873 m 302 505 q 345 454 345 505 q 302 404 345 404 q 260 454 260 404 q 302 505 260 505 z "},"וֹ":{"ha":261,"x_min":70,"x_max":163,"o":"m 111 1058 q 155 1007 155 1058 q 111 956 155 956 q 70 1007 70 956 q 111 1058 70 1058 m 98 0 l 98 875 l 163 875 l 163 0 l 98 0 z "}," ":{"ha":261,"x_min":0,"x_max":0,"o":""}}}
